<?xml version="1.0" standalone="no"?>
<!DOCTYPE svg PUBLIC "-//W3C//DTD SVG 1.1//EN" "http://www.w3.org/Graphics/SVG/1.1/DTD/svg11.dtd" >
<svg xmlns="http://www.w3.org/2000/svg">
<metadata>Generated by IcoMoon</metadata>
<defs>
<font id="icomoon" horiz-adv-x="1024">
<font-face units-per-em="1024" ascent="960" descent="-64" />
<missing-glyph horiz-adv-x="1024" />
<glyph unicode="&#x20;" horiz-adv-x="512" d="" />
<glyph unicode="&#xe900;" glyph-name="gps" d="M468.751 345.413l409.409-409.413h-818.823l409.413 409.413zM921.198 493.927v-514.885l-409.405 409.409 81.798 81.798c-1.558 1.899-3.12 3.802-4.687 5.718-11.086 13.509-22.513 27.451-33.522 42.157l-539.082-539.082v841.571c0 11.204 9.086 20.289 20.289 20.289h492.823c46.349 71.589 126.865 119.098 218.313 119.098 143.348 0 259.971-116.623 259.971-259.967 0.004-90.523-43.326-152.555-86.497-206.107zM415.427 633.582h-150.376v-57.285h88.583c-12.109-37.361-47.242-64.451-88.583-64.451-51.332 0-93.091 41.759-93.091 93.091s41.763 93.091 93.091 93.091c20.736 0 40.347-6.663 56.721-19.267l34.946 45.391c-26.478 20.387-58.177 31.16-91.667 31.16-82.918 0-150.38-67.462-150.38-150.38s67.458-150.38 150.38-150.38c82.918 0 150.38 67.462 150.38 150.38v28.648zM946.832 700.033c0 109.96-89.139 199.099-199.103 199.099-109.96 0-199.095-89.143-199.095-199.099 0-165.293 186.909-212.656 186.909-409.58h24.38c-0.008 196.92 186.909 244.283 186.909 409.58zM747.725 791.092c-42.847 0-77.582-34.735-77.582-77.582 0-42.851 34.739-77.586 77.582-77.586 42.855 0 77.59 34.739 77.59 77.586s-34.735 77.582-77.59 77.582z" />
<glyph unicode="&#xe901;" glyph-name="angle-small-left" d="M572.672 146.731l-225.835 225.835c-19.309 19.304-31.252 45.975-31.252 75.435s11.943 56.131 31.252 75.434l225.835 225.835 90.496-90.539-210.901-210.731 210.731-210.731z" />
<glyph unicode="&#xe902;" glyph-name="comment-alt" d="M789.333 960h-554.667c-129.534-0.17-234.497-105.132-234.667-234.65v-384.016c0.17-129.534 105.132-234.497 234.65-234.667h61.371l174.933-146.261c11.027-9.266 25.379-14.895 41.045-14.895s30.019 5.629 41.144 14.976l-0.098-0.080 174.933 146.261h61.355c129.534 0.17 234.497 105.132 234.667 234.65v384.016c-0.17 129.534-105.132 234.497-234.65 234.667h-0.016zM896 341.333c0-58.91-47.756-106.667-106.667-106.667v0h-84.608c-15.671-0.012-30.023-5.654-41.142-15.013l0.097 0.080-151.68-126.805-151.68 126.805c-11.023 9.279-25.374 14.922-41.043 14.933h-84.61c-58.91 0-106.667 47.756-106.667 106.667v0 384c0 58.91 47.756 106.667 106.667 106.667v0h554.667c58.91 0 106.667-47.756 106.667-106.667v0zM320 576h128c35.346 0 64 28.654 64 64s-28.654 64-64 64v0h-128c-35.346 0-64-28.654-64-64s28.654-64 64-64v0zM704 490.667h-384c-35.346 0-64-28.654-64-64s28.654-64 64-64v0h384c35.346 0 64 28.654 64 64s-28.654 64-64 64v0z" />
<glyph unicode="&#xe903;" glyph-name="cursor-finger" d="M597.333 625.963v163.371c0 94.257-76.41 170.667-170.667 170.667s-170.667-76.41-170.667-170.667v0-250.539l-169.6-166.827c-27.027-27.025-43.744-64.36-43.744-105.6s16.717-78.575 43.744-105.6l224.725-224.768h627.541v604.629zM810.667 64h-446.464l-187.307 187.307c-3.848 3.858-6.228 9.181-6.229 15.061v0c-0.001 0.055-0.001 0.12-0.001 0.184 0 5.639 2.246 10.754 5.893 14.497l-0.004-0.004 79.445 78.208v-81.92h128v512c0 23.564 19.103 42.667 42.667 42.667s42.667-19.103 42.667-42.667v0-263.296l341.333-85.333z" />
<glyph unicode="&#xe904;" glyph-name="Line" d="M1023.2 544.2c-12.4 216-236.6 388.2-511.4 388.2-282.6 0-511.8-182.4-511.8-407.2 0-206.6 193.6-377.4 444.4-403.6 15.4-1.6 26.4-15.4 24.6-30.8l-10.6-96.2c-2.4-21.8 20.2-37.8 40-28.2 212 102.2 338.6 207.4 414.4 298.6 13.8 16.6 58.6 79.4 67.8 96 19.4 35 32.8 72.8 39.2 112.2 2.4 12.4 3.4 22.8 4 31 0.8 13.6-0.2 33.6-0.6 40zM309 390.4h-104.8c-14.4 0-26.2 11.8-26.2 26.2v197.6c0 14.4 11.8 26.2 26.2 26.2s26.2-11.8 26.2-26.2v-171.6h78.6c14.4 0 26.2-11.8 26.2-26.2s-11.8-26-26.2-26zM412.4 410.8c0-11.4-9.2-20.4-20.4-20.4h-11.4c-11.2 0-20.4 9.2-20.4 20.4v209.2c0 11.2 9.2 20.4 20.4 20.4h11.4c11.2 0 20.4-9.2 20.4-20.4v-209.2zM655.8 417.6c0-14.6-11.8-27.4-26.4-27.2-6.8 0-13 2.8-17.8 7.2-1.6 1.4-107.8 139-107.8 139v-120c0-14.4-11.8-26.2-26.2-26.2s-26.2 11.8-26.2 26.2v196.6c0 14.2 11 26.6 25.2 27.2 8.2 0.4 15.6-3.2 20.6-8.8 1.6-1.8 106.2-138.2 106.2-138.2v120.8c0 14.4 11.8 26.2 26.2 26.2s26.2-11.8 26.2-26.2v-196.6zM826 541.6c14.4 0 26.2-11.8 26.2-26.2s-11.8-26.2-26.2-26.2h-78.6v-46.4h78.6c14.4 0 26.2-11.8 26.2-26.2s-11.8-26.2-26.2-26.2h-104.8c-14.4 0-26.2 11.8-26.2 26.2v197.6c0 14.4 11.8 26.2 26.2 26.2h104.8c14.4 0 26.2-11.8 26.2-26.2s-11.8-26.2-26.2-26.2h-78.6v-46.4h78.6z" />
<glyph unicode="&#xe905;" glyph-name="printer" d="M855.002 624.024h-42.751v256.5c0 25.65-17.101 42.751-42.751 42.751h-513.001c-25.65 0-42.751-17.101-42.751-42.751v-256.5h-42.751c-72.675 0-128.25-55.575-128.25-128.25v-213.751c0-72.675 55.575-128.25 128.25-128.25h42.751v-128.25c0-25.65 17.101-42.751 42.751-42.751h513.001c25.65 0 42.751 17.101 42.751 42.751v128.25h42.751c72.675 0 128.25 55.575 128.25 128.25v213.751c0 72.675-55.575 128.25-128.25 128.25zM299.251 837.774h427.501v-213.751h-427.501v213.751zM726.752 68.272h-427.501v256.5h427.501v-256.5zM897.753 282.022c0-25.65-17.101-42.751-42.751-42.751h-42.751v128.25c0 25.65-17.101 42.751-42.751 42.751h-513.001c-25.65 0-42.751-17.101-42.751-42.751v-128.25h-42.751c-25.65 0-42.751 17.101-42.751 42.751v213.751c0 25.65 17.101 42.751 42.751 42.751h684.002c25.65 0 42.751-17.101 42.751-42.751v-213.751z" />
<glyph unicode="&#xe906;" glyph-name="check-square1" d="M971.377 811.804c-17.118 17.118-42.793 17.118-59.908 0l-397.965-397.965-98.421 98.421c-17.118 17.118-42.793 17.118-59.908 0s-17.118-42.793 0-59.908l128.375-128.375c8.557-8.557 21.396-12.839 29.954-12.839s21.396 4.279 29.954 12.839l427.919 427.919c17.118 17.118 17.118 42.793 0 59.908zM898.631 482.308c-25.675 0-42.793-17.118-42.793-42.793v-299.544c0-25.675-17.118-42.793-42.793-42.793h-599.086c-25.675 0-42.793 17.118-42.793 42.793v599.086c0 25.675 17.118 42.793 42.793 42.793h470.711c25.675 0 42.793 17.118 42.793 42.793s-17.118 42.793-42.793 42.793h-470.711c-72.746 0-128.375-55.629-128.375-128.375v-599.086c0-72.746 55.629-128.375 128.375-128.375h599.086c72.746 0 128.375 55.629 128.375 128.375v299.544c0 25.675-17.118 42.793-42.793 42.793z" />
<glyph unicode="&#xe907;" glyph-name="chevrons-right" d="M584.832 183.168l213.333 213.333c16.683 16.683 16.683 43.691 0 60.331l-213.333 213.333c-16.683 16.683-43.691 16.683-60.331 0s-16.683-43.691 0-60.331l183.168-183.168-183.168-183.168c-16.683-16.683-16.683-43.691 0-60.331s43.691-16.683 60.331 0zM286.165 183.168l213.333 213.333c16.683 16.683 16.683 43.691 0 60.331l-213.333 213.333c-16.683 16.683-43.691 16.683-60.331 0s-16.683-43.691 0-60.331l183.168-183.168-183.168-183.168c-16.683-16.683-16.683-43.691 0-60.331s43.691-16.683 60.331 0z" />
<glyph unicode="&#xe908;" glyph-name="settings" d="M512.5 637.352c-93.959 0-170.834-76.875-170.834-170.834s76.875-170.834 170.834-170.834c93.959 0 170.834 76.875 170.834 170.834s-76.875 170.834-170.834 170.834zM512.5 381.102c-46.979 0-85.416 38.438-85.416 85.416s38.438 85.416 85.416 85.416c46.979 0 85.416-38.438 85.416-85.416s-38.438-85.416-85.416-85.416zM866.98 321.309c4.271 8.541 12.813 17.084 29.896 17.084 72.604 0 128.125 55.521 128.125 128.125s-55.521 128.125-128.125 128.125h-8.541c-8.541 0-17.084 4.271-21.354 12.813 0 4.271 0 4.271-4.271 8.541-4.271 8.541-4.271 21.354 8.541 34.166 51.25 51.25 51.25 132.396 0 179.375v0c0 0 0 0 0 0-25.625 25.625-55.521 38.438-89.688 38.438 0 0 0 0 0 0-34.166 0-68.334-12.813-93.959-38.438-8.541-8.541-21.354-8.541-29.896-4.271-8.541 0-17.084 12.813-17.084 25.625 0 72.604-55.521 128.125-128.125 128.125s-128.125-55.521-128.125-128.125v-8.541c0-8.541-4.271-17.084-12.813-21.354-4.271 0-4.271 0-8.541-4.271-8.541-4.271-21.354 0-34.166 8.541-51.25 51.25-132.396 51.25-179.375 0-51.25-51.25-51.25-132.396 4.271-183.646 8.541-8.541 8.541-21.354 4.271-34.166-4.271-8.541-17.084-17.084-29.896-17.084-72.604 0-128.125-55.521-128.125-128.125s55.521-128.125 128.125-128.125h8.541c12.813 0 21.354-8.541 25.625-17.084s4.271-21.354-8.541-34.166c-25.625-25.625-38.438-55.521-38.438-89.688s12.813-64.063 38.438-89.688c0 0 0 0 0 0 51.25-51.25 132.396-51.25 183.646 4.271 8.541 8.541 21.354 8.541 34.166 4.271s17.084-12.813 17.084-29.896c0-72.604 55.521-128.125 128.125-128.125s128.125 55.521 128.125 128.125v8.541c0 12.813 8.541 21.354 17.084 25.625s21.354 4.271 34.166-8.541c51.25-51.25 132.396-51.25 179.375 0 51.25 51.25 51.25 132.396-4.271 183.646-4.271 8.541-8.541 21.354-4.271 29.896 0 0 0 0 0 0zM790.105 355.477c-17.084-42.709-8.541-89.688 25.625-128.125 8.541-8.541 12.813-17.084 12.813-29.896s-4.271-21.354-12.813-29.896c-8.541-8.541-17.084-12.813-29.896-12.813 0 0 0 0 0 0-12.813 0-21.354 4.271-34.166 17.084-34.166 34.166-81.146 42.709-123.854 21.354-42.709-17.084-68.334-59.791-68.334-102.5v-8.541c0-25.625-17.084-42.709-42.709-42.709s-42.709 17.084-42.709 42.709c0 0 0 4.271 0 4.271 0 46.979-29.896 85.416-72.604 102.5-12.813 8.541-29.896 8.541-46.979 8.541-29.896 0-59.791-12.813-81.146-34.166-17.084-17.084-42.709-17.084-59.791 0 0 0 0 0 0 0v0c-8.541 8.541-12.813 17.084-12.813 29.896s4.271 21.354 17.084 34.166c34.166 34.166 42.709 81.146 21.354 123.854-17.084 42.709-59.791 68.334-102.5 68.334h-8.541c-25.625 0-42.709 17.084-42.709 42.709s17.084 42.709 42.709 42.709c0 0 4.271 0 4.271 0 46.979 0 85.416 29.896 102.5 72.604s8.541 89.688-25.625 128.125c-17.084 17.084-17.084 42.709 0 59.791s42.709 17.084 64.063-4.271c29.896-29.896 76.875-38.438 115.313-25.625 4.271 0 8.541 0 12.813 4.271 42.709 17.084 68.334 59.791 68.334 102.5v8.541c0 25.625 17.084 42.709 42.709 42.709s42.709-17.084 42.709-46.979c0-46.979 25.625-85.416 68.334-102.5s89.688-8.541 128.125 25.625c8.541 8.541 17.084 12.813 29.896 12.813v0c12.813 0 21.354-4.271 29.896-12.813 0 0 0 0 0 0 17.084-17.084 17.084-42.709-4.271-64.063-29.896-29.896-38.438-76.875-25.625-115.313 0-4.271 0-8.541 4.271-12.813 17.084-42.709 59.791-68.334 102.5-68.334h8.541c25.625 0 42.709-17.084 42.709-42.709s-17.084-42.709-46.979-42.709c-42.709 0-85.416-25.625-102.5-68.334z" />
<glyph unicode="&#xe909;" glyph-name="list1" horiz-adv-x="839" d="M698.864 853.805h-46.59c-0.157 51.399-41.782 93.025-93.167 93.182h-279.561c-51.399-0.157-93.025-41.782-93.182-93.167v-0.015h-46.59c-79.204 0-139.772-60.568-139.772-139.772v-652.273c0-79.204 60.568-139.772 139.772-139.772h559.091c79.204 0 139.772 60.568 139.772 139.772v652.273c0 79.204-60.568 139.772-139.772 139.772zM279.546 853.805h279.546v-93.182h-279.546v46.59zM745.455 61.759c0-27.954-18.636-46.59-46.59-46.59h-559.091c-27.954 0-46.59 18.636-46.59 46.59v652.273c0 27.954 18.636 46.59 46.59 46.59h46.59c0.157-51.399 41.782-93.025 93.167-93.182h279.561c51.399 0.157 93.025 41.782 93.182 93.167v0.015h46.59c27.954 0 46.59-18.636 46.59-46.59zM329.048 486.173h321.769c27.954 0 46.59 18.636 46.59 46.59s-18.636 46.59-46.59 46.59h-321.769c-27.954 0-46.59-18.636-46.59-46.59s18.636-46.59 46.59-46.59zM650.818 385.712h-321.769c-27.954 0-46.59-18.636-46.59-46.59s18.636-46.59 46.59-46.59h321.769c27.954 0 46.59 18.636 46.59 46.59s-18.636 46.59-46.59 46.59zM650.818 199.348h-321.769c-27.954 0-46.59-18.636-46.59-46.59s18.636-46.59 46.59-46.59h321.769c27.954 0 46.59 18.636 46.59 46.59s-18.636 46.59-46.59 46.59zM155.207 565.379c-9.318-9.318-13.978-18.636-13.978-32.614s4.66-23.296 13.978-32.614 18.636-13.978 32.614-13.978 23.296 4.66 32.614 13.978 13.978 18.636 13.978 32.614-4.66 23.296-13.978 32.614c-18.636 18.636-46.59 18.636-65.228 0zM155.207 371.735c-9.318-9.318-13.978-18.636-13.978-32.614s4.66-23.296 13.978-32.614 18.636-13.978 32.614-13.978 23.296 4.66 32.614 13.978 13.978 18.636 13.978 32.614-4.66 23.296-13.978 32.614c-18.636 18.636-46.59 18.636-65.228 0zM155.207 185.371c-9.318-9.318-13.978-18.636-13.978-32.614s4.66-23.296 13.978-32.614 18.636-13.978 32.614-13.978 23.296 4.66 32.614 13.978 13.978 18.636 13.978 32.614-4.66 23.296-13.978 32.614c-18.636 18.636-46.59 18.636-65.228 0z" />
<glyph unicode="&#xe90a;" glyph-name="ADD2" d="M1002.667 913.067c-12.8 8.533-29.867 8.533-42.667 0l-277.333-162.133-324.267 162.133c0 0 0 0 0 0s0 0-4.267 0c-4.267 4.267-8.533 4.267-12.8 4.267 0 0 0 0 0 0s0 0 0 0c-4.267 0-8.533 0-17.067-4.267 0 0 0 0-4.267 0 0 0-4.267 0-4.267 0l-298.667-170.667c-8.533-8.533-17.067-21.333-17.067-38.4v-682.667c0-17.067 8.533-29.867 21.333-38.4s29.867-8.533 42.667 0l277.333 162.133 320-162.133c0 0 0 0 0 0 8.533-4.267 12.8-4.267 21.333-4.267 4.267 0 8.533 0 12.8 4.267 0 0 4.267 0 4.267 0s0 0 4.267 0l298.667 170.667c12.8 8.533 21.333 21.333 21.333 38.4v682.667c0 17.067-8.533 29.867-21.333 38.4zM298.667 217.6l-213.333-123.733v584.533l213.333 123.733v-584.533zM640 89.6l-256 128v588.8l256-128v-588.8zM938.667 217.6l-213.333-123.733v584.533l213.333 123.733v-584.533z" />
<glyph unicode="&#xe90b;" glyph-name="arrow-left1" d="M811.459 509.227h-495.417l226.354 226.354c17.084 17.084 17.084 42.709 0 59.791s-42.709 17.084-59.791 0l-298.959-298.959c-4.271-4.271-8.541-8.541-8.541-12.813-4.271-8.541-4.271-21.354 0-34.166 4.271-4.271 4.271-8.541 8.541-12.813l298.959-298.959c8.541-8.541 21.354-12.813 29.896-12.813s21.354 4.271 29.896 12.813c17.084 17.084 17.084 42.709 0 59.791l-226.354 226.354h495.417c25.625 0 42.709 17.084 42.709 42.709s-17.084 42.709-42.709 42.709z" />
<glyph unicode="&#xe90c;" glyph-name="clock" d="M591.333 698c4-4 6-9.111 6-15.333v-298.667c0-6.222-2-11.333-6-15.333s-9.111-6-15.333-6h-213.333c-6.222 0-11.333 2-15.333 6s-6 9.111-6 15.333v42.667c0 6.222 2 11.333 6 15.333s9.111 6 15.333 6h149.333v234.667c0 6.222 2 11.333 6 15.333s9.111 6 15.333 6h42.667c6.222 0 11.333-2 15.333-6zM826 266c32.444 55.556 48.667 116.222 48.667 182s-16.222 126.444-48.667 182c-32.444 55.556-76.444 99.556-132 132s-116.222 48.667-182 48.667c-65.778 0-126.444-16.222-182-48.667s-99.556-76.444-132-132c-32.444-55.556-48.667-116.222-48.667-182s16.222-126.444 48.667-182c32.444-55.556 76.444-99.556 132-132s116.222-48.667 182-48.667c65.778 0 126.444 16.222 182 48.667s99.556 76.444 132 132zM955.333 705c45.778-78.444 68.667-164.111 68.667-257s-22.889-178.556-68.667-257c-45.778-78.444-107.889-140.556-186.333-186.333s-164.111-68.667-257-68.667c-92.889 0-178.556 22.889-257 68.667s-140.556 107.889-186.333 186.333c-45.778 78.444-68.667 164.111-68.667 257s22.889 178.556 68.667 257c45.778 78.444 107.889 140.556 186.333 186.333s164.111 68.667 257 68.667c92.889 0 178.556-22.889 257-68.667s140.556-107.889 186.333-186.333z" />
<glyph unicode="&#xe90d;" glyph-name="rotate-ccw" d="M918.435 540.539c-38.628 107.294-115.878 193.129-218.88 244.63s-218.88 55.791-326.174 17.169c-60.085-21.459-115.878-55.791-158.795-98.709l-128.752-120.169v158.795c0 25.75-17.169 42.919-42.919 42.919s-42.919-17.169-42.919-42.919v-257.504c0 0 0-4.291 0-4.291 0-4.291 0-8.581 0-8.581 0-4.291 4.291-4.291 4.291-8.581 0 0 0-4.291 4.291-4.291 0 0 0 0 0 0 4.291-4.291 4.291-4.291 8.581-4.291 0 0 4.291-4.291 4.291-4.291s4.291 0 4.291 0 8.581 0 8.581 0c0 0 0 0 0 0h257.504c25.75 0 42.919 17.169 42.919 42.919s-8.581 34.332-34.332 34.332h-150.211l120.169 115.878c34.332 34.332 81.543 64.378 128.752 81.543 85.835 30.041 180.254 25.75 261.797-12.878s145.919-107.294 175.962-197.421c30.041-85.835 25.75-180.254-12.878-261.797s-107.294-145.919-197.421-175.962c-180.254-64.378-373.383 30.041-437.758 210.296-8.581 21.459-34.332 34.332-55.791 25.75s-34.332-34.332-25.75-55.791c64.378-175.962 231.754-287.548 407.716-287.548 47.209 0 94.419 8.581 141.628 25.75 223.172 77.25 343.34 321.881 261.797 545.053z" />
<glyph unicode="&#xe90e;" glyph-name="mail" d="M964.716 539.621c21.558 16.168 43.116 32.337 59.284 48.505v-458.105c0-26.947-10.779-48.505-26.947-64.674s-37.726-26.947-64.674-26.947h-840.758c-26.947 0-48.505 10.779-64.674 26.947s-26.947 37.726-26.947 64.674v458.105c16.168-16.168 37.726-37.726 59.284-48.505 140.126-91.621 231.747-161.684 285.642-199.411 21.558-16.168 37.726-26.947 53.895-37.726s32.337-16.168 53.895-26.947c21.558-10.779 43.116-16.168 64.674-16.168v0 0c21.558 0 37.726 5.389 64.674 16.168 21.558 10.779 43.116 16.168 53.895 26.947 16.168 10.779 32.337 21.558 53.895 37.726 59.284 48.505 150.905 118.568 274.863 199.411zM997.053 825.263c16.168-16.168 26.947-37.726 26.947-64.674 0-32.337-10.779-59.284-26.947-86.232s-43.116-48.505-70.063-70.063c-145.516-102.4-231.747-161.684-269.474-188.632-5.389 0-10.779-10.779-26.947-16.168-10.779-10.779-21.558-16.168-32.337-21.558s-16.168-10.779-32.337-16.168c-10.779-5.389-21.558-10.779-32.337-16.168s-21.558-5.389-26.947-5.389v0 0c-10.779 0-16.168 0-26.947 5.389s-21.558 10.779-32.337 16.168c-10.779 5.389-21.558 10.779-32.337 16.168s-16.168 10.779-32.337 21.558c-10.779 10.779-21.558 16.168-26.947 16.168-32.337 26.947-86.232 59.284-150.905 102.4s-102.4 70.063-118.568 80.842c-21.558 16.168-48.505 37.726-64.674 64.674s-32.337 53.895-32.337 80.842c0 32.337 5.389 53.895 21.558 75.453s37.726 32.337 70.063 32.337h840.758c37.726 0 59.284-10.779 75.453-26.947z" />
<glyph unicode="&#xe90f;" glyph-name="check-circle1" d="M898.631 425.393v-39.367c-0.043-52.206-10.441-101.93-29.227-147.248-19.513-47.071-48.184-89.477-83.745-124.995s-78.009-64.103-125.123-83.573c-45.316-18.742-95.042-29.097-147.291-29.055s-101.93 10.441-147.248 29.227c-47.071 19.513-89.477 48.184-124.995 83.745s-64.103 78.009-83.573 125.123c-18.742 45.273-29.097 94.999-29.055 147.248s10.441 101.93 29.227 147.248c19.513 47.071 48.184 89.477 83.745 124.995s78.009 64.103 125.123 83.573c45.316 18.742 95.042 29.097 147.291 29.055 56.914-0.043 110.66-12.367 156.147-33.163 21.482-9.843 46.901-0.341 56.698 21.14s0.341 46.901-21.14 56.698c-56.784 25.931-122.643 40.867-191.665 40.909-63.674 0.043-124.524-12.58-180.026-35.561-57.683-23.792-109.548-58.752-152.938-102.103s-78.394-95.127-102.273-152.767c-23.021-55.501-35.732-116.308-35.774-179.983s12.58-124.524 35.561-180.026c23.834-57.64 58.795-109.505 102.103-152.895s95.127-78.394 152.767-102.273c55.501-23.021 116.308-35.732 179.983-35.774s124.524 12.58 180.026 35.561c57.64 23.834 109.505 58.795 152.895 102.103 43.39 43.347 78.394 95.127 102.273 152.767 23.065 55.501 35.774 116.308 35.817 180.026v39.367c0 23.621-19.172 42.793-42.793 42.793s-42.793-19.172-42.793-42.793zM911.168 758.614l-397.665-398.050-98.123 98.080c-16.731 16.731-43.82 16.731-60.508 0s-16.731-43.82 0-60.508l128.375-128.375c16.731-16.731 43.82-16.688 60.55 0l427.919 428.346c16.688 16.731 16.688 43.82-0.043 60.508s-43.82 16.688-60.508-0.043z" />
<glyph unicode="&#xe910;" glyph-name="calendar" d="M298.667 853.334v-42.667h-85.333c-35.328 0-67.413-14.379-90.496-37.504s-37.504-55.168-37.504-90.496v-597.333c0-35.328 14.379-67.413 37.504-90.496s55.168-37.504 90.496-37.504h597.333c35.328 0 67.413 14.379 90.496 37.504s37.504 55.168 37.504 90.496v597.333c0 35.328-14.379 67.413-37.504 90.496s-55.168 37.504-90.496 37.504h-85.333v42.667c0 23.552-19.115 42.667-42.667 42.667s-42.667-19.115-42.667-42.667v-42.667h-256v42.667c0 23.552-19.115 42.667-42.667 42.667s-42.667-19.115-42.667-42.667zM853.333 554.667h-682.667v128c0 11.776 4.736 22.4 12.501 30.165s18.389 12.501 30.165 12.501h85.333v-42.667c0-23.552 19.115-42.667 42.667-42.667s42.667 19.115 42.667 42.667v42.667h256v-42.667c0-23.552 19.115-42.667 42.667-42.667s42.667 19.115 42.667 42.667v42.667h85.333c11.776 0 22.4-4.736 30.165-12.501s12.501-18.389 12.501-30.165zM170.667 469.334h682.667v-384c0-11.776-4.736-22.4-12.501-30.165s-18.389-12.501-30.165-12.501h-597.333c-11.776 0-22.4 4.736-30.165 12.501s-12.501 18.389-12.501 30.165z" />
<glyph unicode="&#xe911;" glyph-name="image" d="M213.333 853.334c-35.328 0-67.413-14.379-90.496-37.504s-37.504-55.168-37.504-90.496v-597.333c0-35.328 14.379-67.413 37.504-90.496s55.168-37.504 90.496-37.504h597.333c35.328 0 67.413 14.379 90.496 37.504s37.504 55.168 37.504 90.496v597.333c0 35.328-14.379 67.413-37.504 90.496s-55.168 37.504-90.496 37.504zM469.333 576c0 29.44-11.989 56.149-31.232 75.435s-45.995 31.232-75.435 31.232-56.149-11.989-75.435-31.232-31.232-45.995-31.232-75.435 11.989-56.149 31.232-75.435 45.995-31.232 75.435-31.232 56.149 11.989 75.435 31.232 31.232 45.995 31.232 75.435zM384 576c0-5.888-2.347-11.179-6.229-15.104s-9.216-6.229-15.104-6.229-11.179 2.347-15.104 6.229-6.229 9.216-6.229 15.104 2.347 11.179 6.229 15.104 9.216 6.229 15.104 6.229 11.179-2.347 15.104-6.229 6.229-9.216 6.229-15.104zM316.331 85.334l366.336 366.336 170.667-170.667v-153.003c0-11.776-4.736-22.4-12.501-30.165s-18.389-12.501-30.165-12.501zM853.333 401.664l-140.501 140.501c-16.683 16.683-43.691 16.683-60.331 0l-454.144-454.144c-5.76 2.133-10.88 5.504-15.189 9.813-7.765 7.765-12.501 18.389-12.501 30.165v597.333c0 11.776 4.736 22.4 12.501 30.165s18.389 12.501 30.165 12.501h597.333c11.776 0 22.4-4.736 30.165-12.501s12.501-18.389 12.501-30.165z" />
<glyph unicode="&#xe912;" glyph-name="chevron-down" d="M798.647 624.539c-17.084 17.084-42.709 17.084-59.791 0l-226.354-226.354-226.354 226.354c-17.084 17.084-42.709 17.084-59.791 0s-17.084-42.709 0-59.791l256.25-256.25c8.541-8.541 21.354-12.813 29.896-12.813s21.354 4.271 29.896 12.813l256.25 256.25c17.084 17.084 17.084 42.709 0 59.791z" />
<glyph unicode="&#xe913;" glyph-name="rotate-cw" d="M838.908 230.803c-15.535-43.906-39.012-82.616-68.239-115.147-30.388-33.777-67.035-60.942-107.466-80.297-40.426-19.314-84.59-30.772-129.955-33.173-43.647-2.316-88.537 3.736-132.443 19.229s-82.616 39.012-115.147 68.239c-33.777 30.388-60.942 67.035-80.297 107.466s-30.772 84.59-33.173 129.955c-2.316 43.647 3.736 88.537 19.229 132.443s39.012 82.616 68.239 115.147c30.388 33.777 67.035 60.942 107.466 80.297s84.59 30.772 129.955 33.173c43.647 2.316 88.537-3.736 132.443-19.229 50.988-18.028 94.804-46.694 128.195-80.772l121.241-114.117h-149.353c-23.69 0-42.919-19.229-42.919-42.919s19.229-42.919 42.919-42.919h257.504c0.171 0 0.299 0 0.469 0 5.881 0.043 11.458 1.286 16.523 3.517 5.278 2.273 10.001 5.577 13.908 9.654 0.518 0.518 0.987 1.073 1.499 1.633 3.133 3.608 5.711 7.771 7.509 12.317 1.761 4.376 2.791 9.142 2.962 14.079 0.043 0.561 0.043 1.115 0.043 1.719v257.504c0 23.69-19.229 42.919-42.919 42.919s-42.919-19.229-42.919-42.919v-158.151l-125.148 117.809c-42.617 43.431-97.594 79.225-160.855 101.543-54.718 19.357-110.899 26.908-165.576 24.031-56.778-3.005-111.971-17.339-162.4-41.456s-96.308-58.024-134.333-100.299c-36.653-40.773-66.005-89.183-85.362-143.945s-26.908-110.899-24.031-165.576c3.005-56.778 17.339-111.971 41.456-162.4s58.024-96.265 100.343-134.29c40.731-36.653 89.183-66.005 143.945-85.319s110.899-26.908 165.576-24.031c56.778 3.005 111.971 17.339 162.4 41.456s96.265 58.024 134.29 100.343c36.653 40.731 66.005 89.183 85.319 143.945 7.899 22.361-3.821 46.868-26.18 54.761s-46.868-3.821-54.761-26.18z" />
<glyph unicode="&#xe914;" glyph-name="shopping-cart" d="M470.251 68.272c0-47.22-38.279-85.499-85.499-85.499s-85.499 38.279-85.499 85.499c0 47.22 38.279 85.499 85.499 85.499s85.499-38.279 85.499-85.499zM940.503 68.272c0-47.22-38.279-85.499-85.499-85.499s-85.499 38.279-85.499 85.499c0 47.22 38.279 85.499 85.499 85.499s85.499-38.279 85.499-85.499zM1017.454 735.173c-8.549 12.826-21.375 17.101-34.199 17.101h-692.552l-34.199 179.55c-4.275 21.375-21.375 34.199-42.751 34.199h-171.001c-25.65 0-42.751-17.101-42.751-42.751s17.101-42.751 42.751-42.751h136.8l34.199-179.55c0 0 0-4.275 0-4.275l72.675-354.826c12.826-59.849 64.126-102.6 123.975-102.6 0 0 0 0 4.275 0h414.677c64.126 0 115.426 42.751 128.25 102.6l68.401 359.101c0 12.826 0 25.65-8.549 34.199zM872.103 358.972c-4.275-21.375-21.375-34.199-42.751-34.199h-414.677c-21.375 0-38.476 12.826-42.751 34.199l-64.126 307.801h624.152l-59.849-307.801z" />
<glyph unicode="&#xe915;" glyph-name="edit" d="M855.838 366.769c-25.675 0-42.793-17.118-42.793-42.793v-226.796c0-25.675-17.118-42.793-42.793-42.793h-599.086c-25.675 0-42.793 17.118-42.793 42.793v599.086c0 25.675 17.118 42.793 42.793 42.793h226.796c25.675 0 42.793 17.118 42.793 42.793s-17.118 42.793-42.793 42.793h-226.796c-72.746 0-128.375-55.629-128.375-128.375v-599.086c0-72.746 55.629-128.375 128.375-128.375h599.086c72.746 0 128.375 55.629 128.375 128.375v226.796c0 25.675-17.118 42.793-42.793 42.793zM971.377 726.222l-171.168 171.168c-17.118 17.118-42.793 17.118-59.908 0l-427.919-427.919c-8.557-8.557-12.839-17.118-12.839-29.954v-171.168c0-25.675 17.118-42.793 42.793-42.793h171.168c12.839 0 21.396 4.279 29.954 12.839l427.919 427.919c17.118 17.118 17.118 42.793 0 59.908zM496.386 311.139h-111.259v111.259l385.127 385.127 111.259-111.259-385.127-385.127z" />
<glyph unicode="&#xe916;" glyph-name="facebook" d="M513.502 920.924c-283.63 0-513.502-229.872-513.502-513.502 0-256.35 187.749-468.772 433.268-507.284v358.85h-130.381v148.435h130.381v113.13c0 128.677 76.625 199.785 193.967 199.785 56.165 0 114.936-10.030 114.936-10.030v-126.369h-64.789c-63.786 0-83.646-39.617-83.646-80.234v-96.282h142.417l-22.766-148.435h-119.651v-358.85c245.519 38.514 433.268 250.935 433.268 507.284 0 283.63-229.872 513.502-513.502 513.502z" />
<glyph unicode="&#xe917;" glyph-name="LINE" d="M513.502 920.924c-283.282 0-513.502-230.221-513.502-513.502s230.221-513.502 513.502-513.502 513.502 230.221 513.502 513.502-230.221 513.502-513.502 513.502zM782.236 267.919c-71.89-83.016-231.931-183.15-268.733-198.555s-30.81 9.414-29.954 18.827c0.856 5.135 5.135 29.097 5.135 29.097 0.856 8.557 2.569 22.253-0.856 30.81-3.422 9.414-18.827 14.549-29.954 17.118-164.32 21.396-285.85 136.079-285.85 273.868 0 152.339 153.195 276.436 341.479 276.436s341.479-124.096 341.479-277.292c0-60.764-23.962-116.394-72.746-170.311v0zM741.156 511.833h-95.854c-1.713 0-3.422-0.856-4.279-1.713 0 0 0 0 0 0s0 0 0 0c-0.856-0.856-1.713-2.569-1.713-4.279v0-148.915c0-1.713 0.856-3.422 1.713-4.279 0 0 0 0 0 0s0 0 0 0c0.856-0.856 2.569-1.713 4.279-1.713v0h95.854c3.422 0 6.848 2.569 6.848 6.848v23.962c0 3.422-2.569 6.848-6.848 6.848h-65.043v24.819h65.043c3.422 0 6.848 2.569 6.848 6.848v23.962c0 3.422-2.569 6.848-6.848 6.848h-65.043v24.819h65.043c3.422 0 6.848 2.569 6.848 6.848v23.962c0 2.569-3.422 5.135-6.848 5.135zM609.356 511.833h-23.962c-3.422 0-6.848-2.569-6.848-6.848v-88.151l-68.468 92.43c0 0 0 0.856-0.856 0.856 0 0 0 0 0 0s0 0 0 0 0 0 0 0 0 0 0 0 0 0 0 0 0 0 0 0 0 0 0 0 0 0 0 0 0 0 0 0 0 0 0 0 0 0 0 0 0 0 0 0 0 0 0 0 0 0 0 0 0 0 0 0 0 0 0 0 0 0 0 0 0 0 0 0h-23.962c-3.422 0-6.848-2.569-6.848-6.848v-148.915c0-3.422 2.569-6.848 6.848-6.848h19.684c3.422 0 6.848 2.569 6.848 6.848v90.719l68.468-92.43c0.856-0.856 0.856-0.856 1.713-1.713 0 0 0 0 0 0s0 0 0 0 0 0 0 0 0 0 0 0 0 0 0 0 0 0 0 0 0 0 0.856 0c0 0 0 0 0 0 0.856 0 0.856 0 1.713 0h23.962c3.422 0 6.848 2.569 6.848 6.848v148.060c0 3.422-2.569 5.991-5.991 5.991zM444.18 511.833h-23.962c-3.422 0-6.848-2.569-6.848-6.848v-148.915c0-3.422 2.569-6.848 6.848-6.848h23.962c3.422 0 6.848 2.569 6.848 6.848v149.771c0 3.422-3.422 5.991-6.848 5.991zM385.983 386.881h-65.043v118.961c0 3.422-2.569 6.848-6.848 6.848h-23.109c-3.422 0-6.848-2.569-6.848-6.848v-148.915c0-1.713 0.856-3.422 1.713-4.279 0 0 0 0 0 0s0 0 0 0c0.856-0.856 2.569-1.713 4.279-1.713v0h95.854c3.422 0 6.848 2.569 6.848 6.848v23.962c0 2.569-2.569 5.135-6.848 5.135z" />
<glyph unicode="&#xe918;" glyph-name="x" d="M226.498 612.524l226.498-226.498-226.498-226.498c-16.731-16.731-16.731-43.82 0-60.508s43.82-16.731 60.508 0l226.498 226.498 226.498-226.498c16.731-16.731 43.82-16.731 60.508 0s16.731 43.82 0 60.508l-226.498 226.498 226.498 226.498c16.731 16.731 16.731 43.82 0 60.508s-43.82 16.731-60.508 0l-226.498-226.498-226.498 226.498c-16.731 16.731-43.82 16.731-60.508 0s-16.731-43.82 0-60.508z" />
<glyph unicode="&#xe919;" glyph-name="x-circle1" d="M984.213 386.025c0 63.674-12.665 124.524-35.646 180.026-23.877 57.64-58.838 109.462-102.188 152.81s-95.17 78.352-152.81 102.188c-55.543 23.021-116.394 35.689-180.069 35.689s-124.524-12.665-180.026-35.646c-57.64-23.877-109.462-58.838-152.81-102.231s-78.352-95.17-102.231-152.81c-22.978-55.501-35.646-116.352-35.646-180.026s12.665-124.524 35.646-180.026c23.877-57.64 58.838-109.462 102.188-152.81s95.17-78.352 152.81-102.188c55.543-23.021 116.394-35.689 180.069-35.689s124.524 12.665 180.026 35.646c57.64 23.877 109.462 58.838 152.81 102.188s78.352 95.17 102.188 152.81c23.021 55.543 35.689 116.394 35.689 180.069zM898.631 386.025c0-52.249-10.398-101.973-29.14-147.291-19.513-47.114-48.098-89.52-83.659-125.038s-77.967-64.146-125.038-83.659c-45.316-18.742-95.042-29.14-147.291-29.14s-101.973 10.398-147.291 29.14c-47.114 19.513-89.52 48.098-125.038 83.659-35.561 35.561-64.146 77.967-83.659 125.038-18.742 45.316-29.14 95.042-29.14 147.291s10.398 101.973 29.14 147.291c19.513 47.114 48.098 89.52 83.659 125.038s77.967 64.146 125.038 83.659c45.316 18.742 95.042 29.14 147.291 29.14s101.973-10.398 147.291-29.14c47.114-19.513 89.52-48.098 125.038-83.659 35.561-35.561 64.146-77.967 83.659-125.038 18.742-45.316 29.14-95.042 29.14-147.291zM354.874 484.147l98.123-98.123-98.123-98.123c-16.731-16.731-16.731-43.82 0-60.508s43.82-16.731 60.508 0l98.123 98.123 98.123-98.123c16.731-16.731 43.82-16.731 60.508 0s16.731 43.82 0 60.508l-98.123 98.123 98.123 98.123c16.731 16.731 16.731 43.82 0 60.508s-43.82 16.731-60.508 0l-98.123-98.123-98.123 98.123c-16.731 16.731-43.82 16.731-60.508 0s-16.731-43.82 0-60.508z" />
<glyph unicode="&#xe91a;" glyph-name="alert-triangle" d="M477.044 712.356c3.124 5.263 7.917 10.355 14.293 14.207 5.007 3.038 10.313 4.922 15.661 5.735 5.562 0.856 11.254 0.6 16.731-0.728s10.611-3.724 15.192-7.061c4.364-3.209 8.173-7.274 11.126-12.111l362.276-604.778c3.294-5.604 5.476-12.751 5.562-20.625 0.085-5.863-1.027-11.382-3.038-16.389-2.097-5.22-5.22-9.971-9.158-13.994s-8.643-7.232-13.82-9.456c-4.964-2.097-10.441-3.337-15.832-3.38l-724.852-0.085c-6.503 0.043-13.735 1.755-20.583 5.735-5.092 2.953-9.286 6.677-12.537 10.956-3.422 4.449-5.949 9.584-7.402 15.021s-1.841 11.126-1.112 16.688c0.686 5.348 2.438 10.697 5.050 15.192zM403.613 756.346l-362.448-605.078c-8.987-15.576-14.335-31.709-16.475-47.97-2.225-16.902-1.027-33.891 3.294-50.024s11.766-31.453 22.167-44.975c10.014-13.052 22.679-24.349 37.658-32.992 19.854-11.468 41.766-17.118 63.119-17.203h725.023c17.758 0.213 34.362 3.809 49.467 10.27 15.661 6.677 29.698 16.389 41.379 28.329s21.055 26.146 27.388 41.979c6.119 15.234 9.371 31.88 9.2 49.211-0.256 22.935-6.546 44.676-17.374 63.076l-362.618 605.377c-9.115 15.021-20.668 27.43-33.934 37.143-13.735 10.099-29.227 17.203-45.444 21.183s-33.248 4.794-50.067 2.225c-16.261-2.481-32.221-8.173-47.029-17.16-18.358-11.126-33.163-26.318-43.305-43.39zM470.711 514.401v-171.168c0-23.621 19.172-42.793 42.793-42.793s42.793 19.172 42.793 42.793v171.168c0 23.621-19.172 42.793-42.793 42.793s-42.793-19.172-42.793-42.793zM556.295 172.066c0 23.621-19.172 42.793-42.793 42.793s-42.793-19.172-42.793-42.793 19.172-42.793 42.793-42.793 42.793 19.172 42.793 42.793z" />
<glyph unicode="&#xe91b;" glyph-name="youtube" d="M967.255 595.259c-10.727 40.773-42.919 72.959-83.689 84.225-73.497 19.847-368.555 19.847-368.555 19.847s-295.058 0-369.090-19.847c-40.773-10.727-72.424-42.919-83.689-84.225-19.314-74.032-19.314-228.536-19.314-228.536s0-154.503 19.847-228.536c10.727-40.773 42.919-72.959 83.689-84.225 73.497-19.847 368.555-19.847 368.555-19.847s295.058 0 369.090 19.847c40.773 10.727 72.424 42.919 83.689 84.225 19.314 74.032 19.314 228.536 19.314 228.536s0 154.503-19.847 228.536zM418.446 226.168v281.11l246.776-140.555-246.776-140.555z" />
<glyph unicode="&#xe91c;" glyph-name="envelope" d="M789.333 917.333h-554.667c-129.544-0.146-234.521-105.122-234.667-234.653v-469.347c0.146-129.544 105.122-234.521 234.653-234.667h554.681c129.544 0.146 234.521 105.122 234.667 234.653v469.347c-0.146 129.544-105.122 234.521-234.653 234.667h-0.014zM789.333 789.333c26.99-0.093 51.58-10.292 70.199-27.009l-0.098 0.087-277.333-277.333c-18.142-17.35-42.789-28.030-69.931-28.030s-51.789 10.68-69.968 28.066l0.038-0.036-277.333 277.333c18.438 16.557 42.893 26.74 69.722 26.922h0.038zM789.333 106.667h-554.667c-58.91 0-106.667 47.756-106.667 106.667v0 404.608l223.531-223.531c41.057-41.074 97.785-66.48 160.448-66.48s119.391 25.406 160.447 66.479l223.574 223.531v-404.608c0-58.91-47.756-106.667-106.667-106.667v0z" />
<glyph unicode="&#xe91d;" glyph-name="fax" d="M533.333 448c35.413 0 64-28.587 64-64s-28.587-64-64-64-64 28.587-64 64 28.587 64 64 64zM533.333 234.667c-35.413 0-64-28.587-64-64s28.587-64 64-64 64 28.587 64 64-28.587 64-64 64zM746.667 320c35.413 0 64 28.587 64 64s-28.587 64-64 64-64-28.587-64-64 28.587-64 64-64zM746.667 106.667c35.413 0 64 28.587 64 64s-28.587 64-64 64-64-28.587-64-64 28.587-64 64-64zM1024 711.253v-540.587c0-129.28-105.387-234.667-234.667-234.667h-597.333c-105.813 0-192 86.187-192 192v469.333c0 105.813 86.187 192 192 192 98.56 0 180.053-74.667 190.72-170.667h86.613v149.333c0 105.813 86.187 192 192 192h113.92c40.107 0 77.227-15.36 105.813-43.947l99.413-99.413c28.16-28.16 43.947-65.707 43.947-105.387zM256 597.333c0 35.413-28.587 64-64 64s-64-28.587-64-64v-469.333c0-35.413 28.587-64 64-64s64 28.587 64 64v469.333zM597.333 618.667h298.667v85.333h-64c-35.413 0-64 28.587-64 64v64h-106.667c-35.413 0-64-28.587-64-64v-149.333zM896 490.667h-512v-362.667c0-22.613-3.84-43.947-11.093-64h416.427c58.88 0 106.667 47.787 106.667 106.667v320z" />
<glyph unicode="&#xe91e;" glyph-name="list" d="M341.667 680.060h555.209c25.625 0 42.709 17.084 42.709 42.709s-17.084 42.709-42.709 42.709h-555.209c-25.625 0-42.709-17.084-42.709-42.709s17.084-42.709 42.709-42.709zM896.876 509.227h-555.209c-25.625 0-42.709-17.084-42.709-42.709s17.084-42.709 42.709-42.709h555.209c25.625 0 42.709 17.084 42.709 42.709s-17.084 42.709-42.709 42.709zM896.876 252.977h-555.209c-25.625 0-42.709-17.084-42.709-42.709s17.084-42.709 42.709-42.709h555.209c25.625 0 42.709 17.084 42.709 42.709s-17.084 42.709-42.709 42.709zM98.229 752.665c-8.541-8.541-12.813-17.084-12.813-29.896s4.271-21.354 12.813-29.896c8.541-8.541 17.084-12.813 29.896-12.813s21.354 4.271 29.896 12.813c8.541 8.541 12.813 17.084 12.813 29.896s-4.271 21.354-12.813 29.896c-17.084 17.084-42.709 17.084-59.791 0zM98.229 496.414c-8.541-8.541-12.813-17.084-12.813-29.896s4.271-21.354 12.813-29.896c8.541-8.541 17.084-12.813 29.896-12.813s21.354 4.271 29.896 12.813c8.541 8.541 12.813 17.084 12.813 29.896s-4.271 21.354-12.813 29.896c-17.084 17.084-42.709 17.084-59.791 0zM98.229 240.164c-8.541-8.541-12.813-17.084-12.813-29.896s4.271-21.354 12.813-29.896c8.541-8.541 17.084-12.813 29.896-12.813s21.354 4.271 29.896 12.813c8.541 8.541 12.813 17.084 12.813 29.896s-4.271 21.354-12.813 29.896c-17.084 17.084-42.709 17.084-59.791 0z" />
<glyph unicode="&#xe91f;" glyph-name="add-to" d="M846.3 53.2c45 45 79.1 97 102.1 152.5 23.9 57.6 35.8 119 35.8 180.3s-11.9 122.7-35.8 180.3c-23 55.6-57.1 107.5-102.1 152.6s-97 79.1-152.5 102.1c-57.6 23.9-119 35.8-180.3 35.8s-122.7-11.9-180.3-35.8c-55.5-23-107.5-57.1-152.5-102.1s-79.1-97-102.1-152.5c-23.9-57.6-35.8-119-35.8-180.3s11.9-122.7 35.8-180.3c23-55.6 57.1-107.5 102.1-152.6 45-45 97-79.1 152.5-102.1 57.6-23.9 119-35.8 180.3-35.8s122.7 11.9 180.3 35.8c55.6 23 107.5 57.1 152.6 102.1zM785.8 113.7c-36.9-36.9-79.5-64.8-124.8-83.5-47.1-19.5-97.3-29.3-147.6-29.3s-100.5 9.8-147.6 29.3c-45.3 18.8-87.8 46.6-124.8 83.5-36.9 36.9-64.8 79.5-83.5 124.8-19.5 47.1-29.3 97.3-29.3 147.6s9.8 100.5 29.3 147.6c18.8 45.3 46.6 87.8 83.5 124.8s79.5 64.8 124.8 83.5c47.1 19.5 97.3 29.3 147.6 29.3s100.5-9.8 147.6-29.3c45.3-18.8 87.8-46.6 124.8-83.5 36.9-36.9 64.8-79.5 83.5-124.8 19.5-47.1 29.3-97.3 29.3-147.6s-9.8-100.5-29.3-147.6c-18.8-45.3-46.6-87.8-83.5-124.8zM470.7 567.6v-138.8h-138.8c-23.7 0-42.8-19.2-42.8-42.8s19.2-42.8 42.8-42.8h138.8v-138.8c0-23.7 19.2-42.8 42.8-42.8s42.8 19.2 42.8 42.8v138.8h138.8c23.7 0 42.8 19.2 42.8 42.8s-19.2 42.8-42.8 42.8h-138.8v138.8c0 23.7-19.2 42.8-42.8 42.8s-42.8-19.2-42.8-42.8v0z" />
<glyph unicode="&#xe920;" glyph-name="layers" d="M68.334 641.622l427.084-213.542c4.271-4.271 8.541-4.271 17.084-4.271s12.813 0 17.084 4.271l427.084 213.542c17.084 8.541 25.625 21.354 25.625 38.438s-8.541 29.896-25.625 38.438l-427.084 213.542c-12.813 4.271-25.625 4.271-38.438 0l-427.084-213.542c-12.813-8.541-21.354-21.354-21.354-38.438s8.541-29.896 25.625-38.438zM512.5 846.622l333.125-166.563-333.125-166.563-333.125 166.563 333.125 166.563zM922.501 291.414l-410-205-410 205c-21.354 8.541-46.979 0-55.521-17.084s0-46.979 17.084-55.521l427.084-213.542c8.541-8.541 12.813-8.541 21.354-8.541s12.813 0 17.084 4.271l427.084 213.542c21.354 8.541 29.896 34.166 17.084 55.521-8.541 21.354-34.166 29.896-51.25 21.354zM922.501 504.956l-410-205-410 205c-21.354 8.541-46.979 0-55.521-17.084-8.541-21.354 0-46.979 17.084-55.521l427.084-213.542c8.541-8.541 12.813-8.541 21.354-8.541s12.813 0 17.084 4.271l427.084 213.542c21.354 8.541 29.896 34.166 17.084 55.521-8.541 21.354-34.166 29.896-51.25 21.354z" />
<glyph unicode="&#xe921;" glyph-name="mail2" d="M884.364 866.909h-744.727c-79.127 0-139.636-60.509-139.636-139.636v-558.545c0-79.127 60.509-139.636 139.636-139.636h744.727c79.127 0 139.636 60.509 139.636 139.636v558.545c0 79.127-60.509 139.636-139.636 139.636zM139.636 773.818h744.727c18.618 0 32.582-9.309 41.891-27.927l-414.255-288.582-414.255 288.582c9.309 18.618 23.273 27.927 41.891 27.927zM930.909 168.727c0-27.927-18.618-46.545-46.545-46.545h-744.727c-27.927 0-46.545 18.618-46.545 46.545v470.109l390.982-274.618c9.309-4.655 18.618-9.309 27.927-9.309s18.618 4.655 27.927 9.309l390.982 274.618v-470.109z" />
<glyph unicode="&#xe922;" glyph-name="arrow-right1" d="M849.897 449.434c4.271 8.541 4.271 21.354 0 34.166-4.271 4.271-4.271 8.541-8.541 12.813l-298.959 298.959c-17.084 17.084-42.709 17.084-59.791 0s-17.084-42.709 0-59.791l226.354-226.354h-495.417c-25.625 0-42.709-17.084-42.709-42.709s17.084-42.709 42.709-42.709h495.417l-226.354-226.354c-17.084-17.084-17.084-42.709 0-59.791 8.541-8.541 21.354-12.813 29.896-12.813s21.354 4.271 29.896 12.813l298.959 298.959c4.271 4.271 8.541 8.541 8.541 12.813z" />
<glyph unicode="&#xe923;" glyph-name="marker" d="M512 960c-247.297-0.315-447.685-200.703-448-447.97v-0.030c0-120.576 93.867-288.683 279.083-499.584 41.449-46.934 101.766-76.381 168.96-76.381s127.511 29.446 168.75 76.139l0.21 0.242c185.131 210.859 278.997 378.965 278.997 499.584-0.315 247.297-200.703 447.685-447.97 448h-0.030zM584.789 96.811c-18.203-19.528-44.074-31.703-72.789-31.703s-54.587 12.175-72.735 31.644l-0.055 0.059c-157.141 178.987-247.467 330.325-247.467 415.147 0 176.731 143.269 320 320 320s320-143.269 320-320v0c0.256-84.821-89.813-236.16-246.955-415.147zM512 701.653c-102.81 0-186.155-83.344-186.155-186.155s83.344-186.155 186.155-186.155c102.81 0 186.155 83.344 186.155 186.155v0c-0.121 102.761-83.393 186.033-186.143 186.155h-0.012zM512 457.344c-32.118 0-58.155 26.037-58.155 58.155s26.037 58.155 58.155 58.155c32.118 0 58.155-26.037 58.155-58.155v0c-0.024-32.108-26.047-58.13-58.152-58.155h-0.002z" />
<glyph unicode="&#xe924;" glyph-name="link" d="M440.236 324.234c-13.31 0-26.616 5.076-36.77 15.23-95.134 95.136-95.134 249.934 0 345.070l192 192c46.088 46.086 107.36 71.466 172.534 71.466s126.448-25.38 172.536-71.464c95.132-95.136 95.132-249.934 0-345.070l-87.766-87.766c-20.308-20.308-53.23-20.308-73.54 0-20.306 20.306-20.306 53.232 0 73.54l87.766 87.766c54.584 54.586 54.584 143.404 0 197.99-26.442 26.442-61.6 41.004-98.996 41.004s-72.552-14.562-98.996-41.006l-192-191.998c-54.586-54.586-54.586-143.406 0-197.992 20.308-20.306 20.306-53.232 0-73.54-10.15-10.152-23.462-15.23-36.768-15.23zM256-52c-65.176 0-126.45 25.38-172.534 71.464-95.134 95.136-95.134 249.934 0 345.070l87.764 87.764c20.308 20.306 53.234 20.306 73.54 0 20.308-20.306 20.308-53.232 0-73.54l-87.764-87.764c-54.586-54.586-54.586-143.406 0-197.992 26.44-26.44 61.598-41.002 98.994-41.002s72.552 14.562 98.998 41.006l192 191.998c54.584 54.586 54.584 143.406 0 197.992-20.308 20.308-20.306 53.232 0 73.54 20.306 20.306 53.232 20.306 73.54-0.002 95.132-95.134 95.132-249.932 0.002-345.068l-192.002-192c-46.090-46.088-107.364-71.466-172.538-71.466z" />
<glyph unicode="&#xe925;" glyph-name="circle-arrow" d="M406 728.2c-3.4 3.4-8.6 5.7-13.2 5.7s-9.7-2.3-13.2-5.7l-28.6-28.6c-3.4-3.4-5.7-8-5.7-13.2 0-4.6 2.3-9.7 5.7-13.2l225.2-225.2-225.2-225.2c-3.4-3.4-5.7-8.6-5.7-13.2s2.3-9.7 5.7-13.2l28.7-28.7c3.4-3.4 8.6-5.7 13.2-5.7s9.7 2.3 13.2 5.7l266.9 267.1c3.4 3.4 5.7 8.6 5.7 13.2s-2.3 9.7-5.7 13.2l-267 267zM947.1 628c-23.9 57.6-58.8 109.5-102.2 152.8-43.3 43.3-95.2 78.4-152.8 102.2-55.6 23-116.4 35.7-180.1 35.7s-124.5-12.7-180-35.6c-57.6-23.9-109.5-58.8-152.8-102.2s-78.4-95.2-102.2-152.8c-23-55.5-35.6-116.4-35.6-180s12.6-124.6 35.5-180.1c23.9-57.6 58.8-109.5 102.2-152.8s95.2-78.4 152.8-102.2c55.5-23 116.4-35.7 180.1-35.7s124.5 12.7 180 35.6c57.6 23.9 109.5 58.8 152.8 102.2s78.4 95.2 102.2 152.8c23 55.5 35.7 116.4 35.7 180.1s-12.7 124.5-35.6 180zM868 300.7c-19.5-47.1-48.1-89.5-83.7-125s-78-64.1-125-83.7c-45.3-18.7-95-29.1-147.3-29.1s-102 10.4-147.3 29.1c-47.1 19.5-89.5 48.1-125 83.7-35.6 35.6-64.1 78-83.7 125-18.7 45.3-29.1 95-29.1 147.3s10.4 102 29.1 147.3c19.5 47.1 48.1 89.5 83.7 125s78 64.1 125 83.7c45.3 18.7 95 29.1 147.3 29.1s102-10.4 147.3-29.1c47.1-19.5 89.5-48.1 125-83.7 35.6-35.6 64.1-78 83.7-125 18.7-45.3 29.1-95 29.1-147.3s-10.4-102-29.1-147.3z" />
<glyph unicode="&#xe926;" glyph-name="phone-call" d="M746.667-64c-347.691-9.771-963.2 606.421-667.221 941.312 1.067 1.024 46.592 40.704 46.592 40.704 27.17 25.174 63.668 40.617 103.774 40.617 41.003 0 78.236-16.143 105.69-42.42l-0.056 0.053 91.819-98.901c25.809-26.938 41.698-63.559 41.698-103.891 0-41.171-16.557-78.476-43.377-105.617l0.015 0.015-16.555-16.811c50.331-109.627 136.139-195.767 242.455-245.254l3.049-1.274 17.536 17.067c27.39 26.124 64.564 42.199 105.493 42.199s78.104-16.075 105.554-42.257l-0.061 0.057 95.445-88.533c27.884-27.257 45.175-65.25 45.175-107.281 0-40.283-15.882-76.856-41.726-103.8l0.050 0.052s-39.68-45.483-40.704-46.549c-49.302-49.125-117.318-79.497-192.428-79.497-0.78 0-1.559 0.003-2.337 0.010l0.119-0.001zM168.533 785.067c-207.317-256.768 456.277-882.048 680.747-680.533 0 0 39.424 45.184 40.491 46.208 3.859 3.86 6.246 9.193 6.246 15.083s-2.387 11.222-6.246 15.083v0l-95.488 88.491c-12.8 10.667-20.011 10.795-31.872 1.707l-48.469-47.701c-11.543-11.361-27.394-18.376-44.882-18.376-8.208 0-16.054 1.545-23.265 4.36l0.436-0.15c-172.755 65.548-306.77 199.382-371.106 367.666l-1.459 4.344c-2.907 7.049-4.594 15.233-4.594 23.811 0 17.489 7.015 33.339 18.384 44.891l-0.008-0.008 47.275 48.043c4.273 3.808 6.951 9.327 6.951 15.471 0 5.962-2.521 11.334-6.555 15.11l-0.012 0.011-91.904 98.901c-3.58 3.007-8.239 4.835-13.324 4.835-5.961 0-11.336-2.51-15.125-6.531l-0.010-0.010c-1.024-1.067-46.208-40.704-46.208-40.704zM717.141 316.331v0zM1024 554.667c-0.267 223.752-181.581 405.066-405.307 405.333h-0.026c-35.346 0-64-28.654-64-64s28.654-64 64-64v0c153.089-0.194 277.139-124.244 277.333-277.315v-0.019c0-35.346 28.654-64 64-64s64 28.654 64 64v0zM810.667 554.667c-0.121 105.99-86.010 191.879-191.989 192h-0.011c-35.346 0-64-28.654-64-64s28.654-64 64-64v0c35.346 0 64-28.654 64-64v0c0-35.346 28.654-64 64-64s64 28.654 64 64v0z" />
<glyph unicode="&#xe927;" glyph-name="phone2" d="M883.2-59.733c-4.267 0-8.533 0-12.8 0-149.333 17.067-294.4 68.267-422.4 149.333-115.2 72.533-217.6 174.933-294.4 294.4-81.067 128-132.267 273.067-149.333 422.4-4.267 38.4 8.533 76.8 34.133 102.4 21.333 29.867 55.467 46.933 93.867 51.2 4.267 0 8.533 0 12.8 0h140.8c0 0 0 0 0 0 68.267 0 128-51.2 136.533-119.467 4.267-42.667 17.067-81.067 29.867-119.467 17.067-51.2 8.533-106.667-29.867-149.333l-34.133-34.133c55.467-85.333 128-157.867 213.333-213.333l34.133 34.133c38.4 38.4 98.133 51.2 149.333 29.867 38.4-12.8 81.067-25.6 119.467-29.867 72.533-8.533 123.733-72.533 119.467-140.8v-140.8c0-38.4-12.8-72.533-38.4-98.133-29.867-25.6-64-38.4-102.4-38.4 0 0 0 0 0 0zM285.867 866.133c0 0 0 0 0 0h-140.8c-17.067 0-29.867-8.533-38.4-17.067-4.267-8.533-8.533-21.333-8.533-34.133 12.8-136.533 59.733-268.8 136.533-384 68.267-106.667 157.867-196.267 264.533-264.533 115.2-72.533 247.467-119.467 379.733-136.533 17.067 0 25.6 4.267 38.4 12.8 8.533 8.533 12.8 21.333 12.8 34.133v140.8c0 0 0 0 0 0 0 25.6-17.067 42.667-38.4 46.933-46.933 4.267-93.867 17.067-140.8 34.133-17.067 8.533-38.4 4.267-51.2-8.533l-59.733-55.467c-12.8-12.8-38.4-17.067-55.467-8.533-123.733 68.267-226.133 174.933-298.667 298.667-8.533 17.067-4.267 38.4 12.8 51.2l59.733 59.733c12.8 12.8 17.067 29.867 8.533 46.933-17.067 46.933-29.867 98.133-34.133 145.067-4.267 21.333-25.6 38.4-46.933 38.4z" />
<glyph unicode="&#xe928;" glyph-name="download" d="M853.333 298.667v-170.667c0-11.776-4.736-22.4-12.501-30.165s-18.389-12.501-30.165-12.501h-597.333c-11.776 0-22.4 4.736-30.165 12.501s-12.501 18.389-12.501 30.165v170.667c0 23.552-19.115 42.667-42.667 42.667s-42.667-19.115-42.667-42.667v-170.667c0-35.328 14.379-67.413 37.504-90.496s55.168-37.504 90.496-37.504h597.333c35.328 0 67.413 14.379 90.496 37.504s37.504 55.168 37.504 90.496v170.667c0 23.552-19.115 42.667-42.667 42.667s-42.667-19.115-42.667-42.667zM554.667 401.664v409.003c0 23.552-19.115 42.667-42.667 42.667s-42.667-19.115-42.667-42.667v-409.003l-140.501 140.501c-16.683 16.683-43.691 16.683-60.331 0s-16.683-43.691 0-60.331l213.333-213.333c3.925-3.925 8.619-7.083 13.824-9.259s10.795-3.243 16.341-3.243c10.923 0 21.845 4.181 30.165 12.501l213.333 213.333c16.683 16.683 16.683 43.691 0 60.331s-43.691 16.683-60.331 0z" />
<glyph unicode="&#xe929;" glyph-name="tag" d="M908.672 336.342c24.875 25.003 37.291 57.685 37.291 90.24 0.043 32.597-12.373 65.365-37.291 90.453l-366.507 366.507c-7.723 7.68-18.389 12.459-30.165 12.459h-426.667c-23.552 0-42.667-19.115-42.667-42.667v-426.667c0-10.923 4.181-21.845 12.501-30.208l366.592-366.165c25.003-24.96 57.856-37.461 90.539-37.419s65.536 12.544 90.453 37.504zM848.341 396.672l-305.92-305.92c-8.363-8.363-19.2-12.544-30.165-12.544s-21.845 4.139-30.165 12.459l-354.091 353.707v366.293h366.336l354.005-354.005c8.192-8.235 12.331-19.072 12.331-30.037 0-10.923-4.139-21.717-12.331-29.952zM298.667 597.334c23.552 0 42.667 19.115 42.667 42.667s-19.115 42.667-42.667 42.667-42.667-19.115-42.667-42.667 19.115-42.667 42.667-42.667z" />
<glyph unicode="&#xe92a;" glyph-name="copy" d="M435.067 455.333h70c19.333 0 34.933 15.733 34.933 34.933 0 19.333-15.733 34.933-34.933 34.933h-70c-19.333 0-34.933-15.733-34.933-34.933-0.133-19.2 15.6-34.933 34.933-34.933zM400 350.4c0-19.333 15.733-34.933 34.933-34.933h280c19.333 0 34.933 15.733 34.933 34.933s-15.733 34.933-34.933 34.933h-280c-19.2 0.133-34.933-15.6-34.933-34.933zM879.733 550.133l-210 210c-3.2 3.2-7.067 5.867-11.333 7.6s-8.8 2.667-13.467 2.667h-280c-28.933 0-55.333-11.733-74.267-30.8-18.8-18.933-30.667-45.2-30.667-74.267v-559.867c0-28.933 11.733-55.333 30.8-74.267 18.933-18.933 45.2-30.8 74.267-30.8h419.867c28.933 0 55.333 11.733 74.267 30.8 18.933 18.933 30.8 45.2 30.8 74.267v419.867c0 9.733-4 18.4-10.267 24.8zM680 650.933l90.533-90.533h-90.533v90.533zM820 105.467c0-9.6-3.867-18.4-10.267-24.8s-15.067-10.267-24.8-10.267h-419.867c-9.6 0-18.4 3.867-24.8 10.267s-10.267 15.067-10.267 24.8v559.867c0 9.6 3.867 18.4 10.267 24.8s15.067 10.267 24.8 10.267h244.933v-175.067c0-19.333 15.733-34.933 34.933-34.933h175.067v-384.933zM714.933 245.467h-280c-19.333 0-34.933-15.733-34.933-34.933s15.733-34.933 34.933-34.933h280c19.333 0 34.933 15.733 34.933 34.933s-15.6 34.933-34.933 34.933zM242.8 137.2c-8.533 1.067-16.133 4.933-21.867 10.8-6.933 6.933-11.067 16.267-11.067 26.8v606c0 10.4 4.267 19.867 11.067 26.8 6.933 6.933 16.267 11.067 26.8 11.067h265.2v-30.267h159.6l-94.933 94.933c-3.467 3.467-7.6 6.267-12.267 8.267-4.667 1.867-9.6 2.933-14.533 2.933h-303.067c-31.333 0-59.867-12.8-80.4-33.333s-33.333-48.933-33.333-80.4v-606c0-31.333 12.8-59.867 33.333-80.4s48.933-33.333 80.4-33.333h2.4c-4.667 12.933-7.2 26.8-7.2 41.067v35.067z" />
<glyph unicode="&#xe92b;" glyph-name="search" d="M806.4 244.224c55.965 74.14 89.637 167.839 89.637 269.403 0 248.343-201.321 449.664-449.664 449.664s-449.664-201.321-449.664-449.664c0-248.343 201.321-449.664 449.664-449.664 101.564 0 195.263 33.672 270.544 90.461l-1.141-0.824 217.6-217.6 90.624 90.453zM448 192c-176.731 0-320 143.269-320 320s143.269 320 320 320c176.731 0 320-143.269 320-320v0c-0.17-176.663-143.337-319.83-319.984-320h-0.016z" />
<glyph unicode="&#xe92c;" glyph-name="map-pin" d="M938.667 512c0 117.803-47.787 224.555-124.971 301.696s-183.893 124.971-301.696 124.971-224.555-47.787-301.696-124.971-124.971-183.893-124.971-301.696c0-24.277 2.261-48.128 6.4-71.509 11.691-66.048 38.357-128.171 71.765-184.32 116.565-195.883 324.821-334.336 324.821-334.336 14.123-9.259 32.64-9.771 47.317 0 0 0 208.299 138.453 324.821 334.336 33.408 56.149 60.075 118.272 71.765 184.32 4.181 23.381 6.443 47.232 6.443 71.509zM853.333 512c0-18.944-1.749-37.845-5.077-56.661-9.429-53.333-31.445-105.728-61.099-155.563-81.579-137.131-214.869-245.205-271.744-287.573-59.648 39.083-195.755 148.352-278.613 287.573-29.653 49.835-51.669 102.229-61.099 155.563-3.285 18.816-5.035 37.717-5.035 56.661 0 94.251 38.144 179.541 99.968 241.365s147.115 99.968 241.365 99.968 179.541-38.144 241.365-99.968 99.968-147.115 99.968-241.365zM682.667 512c0 47.104-19.157 89.856-50.005 120.661s-73.557 50.005-120.661 50.005-89.856-19.157-120.661-50.005-50.005-73.557-50.005-120.661 19.157-89.856 50.005-120.661 73.557-50.005 120.661-50.005 89.856 19.157 120.661 50.005 50.005 73.557 50.005 120.661zM597.333 512c0-23.595-9.515-44.843-25.003-60.331s-36.736-25.003-60.331-25.003-44.843 9.515-60.331 25.003-25.003 36.736-25.003 60.331 9.515 44.843 25.003 60.331 36.736 25.003 60.331 25.003 44.843-9.515 60.331-25.003 25.003-36.736 25.003-60.331z" />
<glyph unicode="&#xe92d;" glyph-name="world" d="M512 960c-282.77 0-512-229.23-512-512s229.23-512 512-512c282.77 0 512 229.23 512 512v0c-0.316 282.643-229.358 511.685-511.97 512h-0.030zM533.333 65.067v54.827c0 98.734-80.040 178.773-178.773 178.773v0h-0.427c-0.002 0-0.004 0-0.005 0-37.040 0-70.573 15.017-94.842 39.296l-130.262 130.347c10.747 203.096 178.045 363.706 382.856 363.706 79.885 0 154.062-24.434 215.467-66.236l-1.331 0.855c-10.763-7.973-24.296-12.772-38.948-12.8h-61.191c0 0 0 0 0 0-36.642 0-66.347-29.704-66.347-66.347 0-0.045 0-0.090 0-0.135v0.007-44.459c0-36.642-29.704-66.347-66.347-66.347v0 0c-0.051 0-0.111 0-0.171 0-36.642 0-66.347-29.704-66.347-66.347 0 0 0 0 0 0v0-44.459c0-36.642 29.704-66.347 66.347-66.347v0h177.323c36.642 0 66.347-29.704 66.347-66.347v0-64.853c0.001-18.331 7.437-34.926 19.456-46.933v0l35.541-35.541c-65.297-69.698-156.044-114.866-257.337-120.616l-1.010-0.046z" />
<glyph unicode="&#xe92e;" glyph-name="globe" d="M723.243 469.334c-9.131 114.773-47.019 228.395-114.091 328.96 66.987-17.451 126.848-52.565 174.379-100.096 60.075-60.075 100.309-139.861 110.123-228.864zM609.237 55.083c63.275 94.976 103.979 207.061 113.877 328.917h170.539c-9.813-89.003-50.048-168.789-110.123-228.864-47.488-47.488-107.349-82.603-174.293-100.053zM300.757 384c9.131-114.773 47.019-228.395 114.091-328.96-66.987 17.451-126.848 52.565-174.379 100.096-60.075 60.075-100.309 139.861-110.123 228.864zM414.763 798.251c-63.232-94.976-103.936-207.061-113.877-328.917h-170.539c9.813 89.003 50.048 168.789 110.123 228.864 47.531 47.488 107.349 82.603 174.293 100.053zM512.171 896c0 0 0 0 0 0-129.877-0.043-247.211-52.608-332.032-137.472-84.907-84.864-137.472-202.283-137.472-331.861s52.565-246.997 137.472-331.861c84.821-84.864 202.155-137.429 331.691-137.472 0 0 0 0 0 0 129.877 0.043 247.168 52.608 332.032 137.472 84.907 84.864 137.472 202.283 137.472 331.861s-52.565 246.997-137.472 331.861c-84.821 84.864-202.155 137.429-331.691 137.472zM637.696 384c-10.752-118.955-56.149-228.693-125.653-317.909-73.771 94.763-115.456 205.568-125.653 317.909zM511.957 787.243c73.771-94.763 115.456-205.568 125.653-317.909h-251.307c10.752 118.955 56.149 228.693 125.653 317.909z" />
<glyph unicode="&#xe92f;" glyph-name="home1" d="M927.019 561.997l-386.257 300.423c-17.169 12.878-38.628 12.878-51.5 0l-386.257-300.423c-12.878-8.581-17.169-21.459-17.169-34.332v-472.093c0-72.959 55.791-128.752 128.752-128.752h600.845c72.959 0 128.752 55.791 128.752 128.752v472.093c0 12.878-4.291 25.75-17.169 34.332zM600.845 12.653h-171.67v343.34h171.67v-343.34zM858.35 55.57c0-25.75-17.169-42.919-42.919-42.919h-128.752v386.257c0 25.75-17.169 42.919-42.919 42.919h-257.504c-25.75 0-42.919-17.169-42.919-42.919v-386.257h-128.752c-25.75 0-42.919 17.169-42.919 42.919v450.634l343.34 266.089 343.34-266.089v-450.634z" />
<glyph unicode="&#xe930;" glyph-name="trash-2" d="M768 640v-554.667c0-11.776-4.736-22.4-12.501-30.165s-18.389-12.501-30.165-12.501h-426.667c-11.776 0-22.4 4.736-30.165 12.501s-12.501 18.389-12.501 30.165v554.667zM725.333 725.334v42.667c0 35.328-14.379 67.413-37.504 90.496s-55.168 37.504-90.496 37.504h-170.667c-35.328 0-67.413-14.379-90.496-37.504s-37.504-55.168-37.504-90.496v-42.667h-170.667c-23.552 0-42.667-19.115-42.667-42.667s19.115-42.667 42.667-42.667h42.667v-554.667c0-35.328 14.379-67.413 37.504-90.496s55.168-37.504 90.496-37.504h426.667c35.328 0 67.413 14.379 90.496 37.504s37.504 55.168 37.504 90.496v554.667h42.667c23.552 0 42.667 19.115 42.667 42.667s-19.115 42.667-42.667 42.667zM384 725.334v42.667c0 11.776 4.736 22.4 12.501 30.165s18.389 12.501 30.165 12.501h170.667c11.776 0 22.4-4.736 30.165-12.501s12.501-18.389 12.501-30.165v-42.667zM384 469.334v-256c0-23.552 19.115-42.667 42.667-42.667s42.667 19.115 42.667 42.667v256c0 23.552-19.115 42.667-42.667 42.667s-42.667-19.115-42.667-42.667zM554.667 469.334v-256c0-23.552 19.115-42.667 42.667-42.667s42.667 19.115 42.667 42.667v256c0 23.552-19.115 42.667-42.667 42.667s-42.667-19.115-42.667-42.667z" />
<glyph unicode="&#xe931;" glyph-name="whats-app" d="M1024 460.8c0-276.114-224.914-499.2-502.857-499.2s-170.057 21.943-243.2 62.171l-277.943-87.771 91.429 266.971c-45.714 74.971-71.314 162.743-71.314 257.829-1.829 276.114 223.086 499.2 501.029 499.2s502.857-223.086 502.857-499.2zM521.143 879.543c-232.229 0-422.4-188.343-422.4-418.743s29.257-177.371 80.457-245.029l-53.029-155.429 162.743 51.2c67.657-43.886 146.286-69.486 232.229-69.486 232.229 0 422.4 188.343 422.4 418.743s-190.171 418.743-422.4 418.743zM775.314 345.6c-3.657 5.486-10.971 7.314-23.771 14.629-12.8 5.486-73.143 36.571-84.114 40.229s-20.114 5.486-27.429-5.486c-7.314-12.8-31.086-40.229-38.4-47.543s-14.629-9.143-27.429-3.657-51.2 18.286-98.743 60.343c-36.571 32.914-62.171 73.143-67.657 84.114-7.314 12.8 0 18.286 5.486 25.6 5.486 5.486 12.8 14.629 18.286 21.943s7.314 12.8 12.8 20.114c3.657 7.314 0 14.629 0 21.943-3.657 5.486-27.429 65.829-38.4 91.429-10.971 23.771-20.114 20.114-27.429 20.114s-14.629 0-23.771 0-21.943-3.657-32.914-14.629c-10.971-12.8-43.886-42.057-43.886-102.4s43.886-118.857 51.2-126.171c5.486-7.314 85.943-135.314 210.286-184.686 126.171-49.371 126.171-32.914 148.114-31.086s73.143 29.257 82.286 58.514c9.143 25.6 9.143 51.2 7.314 54.857z" />
<glyph unicode="&#xe932;" glyph-name="qq" d="M154.286 499.429q-4.571 10.857-4.571 29.714 0 11.429 6.286 28t13.714 25.714q-0.571 12.571 4.286 30.286t12.857 24.571q0 79.429 52.857 164.857t124.286 119.714q79.429 37.714 185.143 37.714 76 0 152-31.429 28-12 51.429-27.429t40.571-32 31.429-38.857 24-42.286 18.571-48.286 14.571-51.143 12.571-56l0.571-2.857q31.429-47.429 31.429-85.714 0-8-5.143-22.857t-5.143-21.714q0-0.571 0.857-2t2-2.857 1.143-2q44-65.143 68.857-122.571t24.857-119.143q0-24.571-11.143-57.143t-31.714-32.571q-5.143 0-11.143 4.286t-10.857 10-10.857 14.857-9.143 15.143-7.714 14.857-5.143 10q-0.571 0.571-1.714 0.571l-2.857-2.286q-33.714-88-75.429-127.429 11.429-11.429 35.143-22t39.429-23.714 20.286-37.143q-1.143-2.286-2.286-9.143t-4-10.286q-36.571-55.429-172.571-55.429-30.286 0-63.143 5.143t-56 11.429-59.714 17.143q-8.571 2.857-13.143 4-8 2.286-26.286 2.571t-22.857 0.857q-23.429-25.714-72.857-37.143t-96.286-11.429q-20 0-39.429 0.857t-53.143 5.143-57.714 11.714-42.571 22.857-18.571 36.571q0 22.857 5.714 34t23.429 27.714q6.286 1.143 23.143 7.429t28.286 6.857q2.286 0 8 1.143 1.143 1.143 1.143 2.286l-1.143 1.714q-27.429 6.286-61.714 60.286t-41.714 89.429l-2.857 1.714q-2.286 0-6.857-11.429-10.286-23.429-31.143-42.571t-44.286-21.429h-0.571q-2.286 0-3.429 2.571t-2.857 3.143q-13.143 30.857-13.143 57.143 0 157.143 144 266.286z" />
<glyph unicode="&#xe933;" glyph-name="wechat" d="M704 618.667v0h6.4c11.528 0.819 20.709 9.853 21.753 21.242l0.007 0.092c0 0.048 0.001 0.105 0.001 0.162 0 4.571-1.438 8.807-3.886 12.279l0.045-0.067c-49.067 133.12-191.147 222.293-354.987 222.293-205.653 0-373.333-143.36-373.333-320 1.902-101.038 53.263-189.686 130.819-242.964l1.021-0.663-42.667-88.32c-1.517-2.858-2.408-6.248-2.408-9.846 0-11.782 9.551-21.333 21.333-21.333 4.039 0 7.817 1.123 11.037 3.073l-0.095-0.053 113.067 64.427c27.471-10.080 59.525-17.734 92.74-21.574l1.98-0.186c0.677-0.076 1.462-0.12 2.257-0.12 11.782 0 21.333 9.551 21.333 21.333 0 1.707-0.2 3.367-0.579 4.958l0.029-0.145c-4.767 16.828-7.838 36.277-8.522 56.332l-0.011 0.414c0 164.693 162.56 298.667 362.667 298.667zM469.333 704c23.564 0 42.667-19.103 42.667-42.667s-19.103-42.667-42.667-42.667c-23.564 0-42.667 19.103-42.667 42.667v0c0 23.564 19.103 42.667 42.667 42.667v0zM256 618.667c-23.564 0-42.667 19.103-42.667 42.667s19.103 42.667 42.667 42.667c23.564 0 42.667-19.103 42.667-42.667v0c0-23.564-19.103-42.667-42.667-42.667v0zM1024 320c0 141.227-143.36 256-320 256s-320-114.773-320-256 143.36-256 320-256c0.057 0 0.125 0 0.192 0 34.801 0 68.548 4.514 100.686 12.989l-2.745-0.615 105.813-52.907c2.717-1.346 5.916-2.134 9.299-2.134 0.031 0 0.061 0 0.092 0h-0.005c11.736 0.060 21.227 9.588 21.227 21.333 0 2.924-0.588 5.71-1.653 8.248l0.052-0.141-29.013 72.533c67.539 41.299 112.734 113.375 116.039 196.229l0.015 0.464zM597.333 362.667c-23.564 0-42.667 19.103-42.667 42.667s19.103 42.667 42.667 42.667c23.564 0 42.667-19.103 42.667-42.667v0c0-23.564-19.103-42.667-42.667-42.667v0zM810.667 362.667c-23.564 0-42.667 19.103-42.667 42.667s19.103 42.667 42.667 42.667c23.564 0 42.667-19.103 42.667-42.667v0c0-23.564-19.103-42.667-42.667-42.667v0z" />
<glyph unicode="&#xe934;" glyph-name="message-circle" d="M938.667 469.467v21.2c0 0.667 0 1.6 0 2.533-5.867 99.733-47.467 190.4-112.667 258.133-68.4 71.067-162.667 117.467-268.8 123.2-0.667 0-1.6 0-2.4 0h-20.8c-60 0.667-122.933-13.2-181.867-43.067-52.133-26.533-97.733-63.467-133.867-108.133-56.4-69.733-89.867-158.133-90-253.733-0.533-54.4 10.8-111.333 35.2-165.467l-75.6-226.8c-2.8-8.4-3.067-17.867 0-26.933 7.467-22.4 31.6-34.4 54-26.933l226.667 75.6c49.467-22.533 106-35.2 165.333-35.067 58.533 0.4 115.733 13.2 168.133 36.933 81.6 37.2 151.067 101.2 193.733 186.667 27.467 53.333 43.333 115.867 43.2 181.867v0zM853.333 469.2c0-52.267-12.4-101.333-33.6-142.4-34.133-68.4-88.8-118.8-153.2-148.133-41.333-18.8-86.8-28.933-133.333-29.333-52.133 0-101.2 12.4-142.267 33.6-10.667 5.467-22.533 6-33.067 2.533l-162.267-54.133 54.133 162.267c3.733 11.2 2.533 22.933-2.4 32.667-23.6 46.667-34.267 96.133-33.733 142.4 0 76.267 26.4 145.867 70.933 200.933 28.667 35.333 64.8 64.667 106.267 85.733 46.533 23.6 96.133 34.267 142.4 33.733h19.467c83.733-4.533 158-41.067 212-97.2 51.333-53.333 84.133-124.4 89.067-202.8v-20.133zM430.667 460.4c0-40.501-32.832-73.333-73.333-73.333s-73.333 32.832-73.333 73.333c0 40.501 32.832 73.333 73.333 73.333s73.333-32.832 73.333-73.333zM610.667 460.4c0-40.501-32.832-73.333-73.333-73.333s-73.333 32.832-73.333 73.333c0 40.501 32.832 73.333 73.333 73.333s73.333-32.832 73.333-73.333zM790.667 460.4c0-40.501-32.832-73.333-73.333-73.333s-73.333 32.832-73.333 73.333c0 40.501 32.832 73.333 73.333 73.333s73.333-32.832 73.333-73.333z" />
<glyph unicode="&#xe935;" glyph-name="contract" horiz-adv-x="1117" d="M174.266 673.652h448.326c25.693 0 46.545 20.852 46.545 46.545s-20.852 46.545-46.545 46.545h-448.326c-25.693 0-46.545-20.852-46.545-46.545s20.852-46.545 46.545-46.545zM174.266 481.513h256.186c25.693 0 46.545 20.852 46.545 46.545s-20.852 46.545-46.545 46.545h-256.186c-25.693 0-46.545-20.852-46.545-46.545s20.852-46.545 46.545-46.545zM174.266 289.745h192.14c25.693 0 46.545 20.852 46.545 46.545s-20.852 46.545-46.545 46.545h-192.14c-25.693 0-46.545-20.852-46.545-46.545s20.852-46.545 46.545-46.545zM1070.545 958.511h-1024c-25.693 0-46.545-20.852-46.545-46.173v-768.186c0-25.693 20.852-46.545 46.545-46.545h564.876v-113.571c0-16.012 8.192-30.906 21.969-39.471 7.447-4.468 16.012-7.075 24.204-7.075s14.15 1.489 20.852 4.841l86.016 42.822 86.016-42.822c14.15-7.075 31.651-6.33 45.056 1.862 13.777 8.564 21.969 23.087 21.969 39.471v113.571h153.414c25.693 0 46.545 20.852 46.545 46.545v768.559c0 25.693-20.852 46.545-46.545 46.545zM824.413 58.88l-39.471 19.735c-12.66 6.33-28.672 6.33-41.332 0l-39.471-19.735v138.147c39.471-11.171 81.548-11.171 120.646 0v-138.147zM764.090 281.553c-72.983 0-132.189 59.206-132.189 132.189s59.206 132.189 132.189 132.189 132.189-59.206 132.189-132.189-59.206-132.189-132.189-132.189zM1024.372 190.324h-107.241v58.833c45.801 42.449 71.866 102.4 71.866 164.585 0 123.997-100.911 224.908-224.908 224.908s-224.908-100.911-224.908-224.908 26.065-122.135 71.866-164.585v-58.833h-518.33v675.468h931.654v-675.468z" />
<glyph unicode="&#xe936;" glyph-name="phone" d="M0 460.8c0 276.1 224.9 499.2 502.9 499.2s502.9-223.1 501-499.2c0-95.1-25.6-182.9-71.3-257.8l91.4-267-277.9 87.8c-73.1-40.2-97.2-61-243.2-62.2-121.2-1-250.8 49.8-340.3 131.4-100 91.2-162.6 222.1-162.6 367.8v0zM502.9 879.5c-232.2 0-422.4-188.3-422.4-418.7s190.2-418.7 422.4-418.7c85.9 0 164.6 25.6 232.2 69.5l162.7-51.2-53 155.4c51.2 67.7 80.5 14.6 80.5 245s-190.2 418.7-422.4 418.7v0zM743.3 345.6c-3.7 5.5-11 7.3-23.8 14.6-12.8 5.5-73.1 36.6-84.1 40.2-11 3.7-20.1 5.5-27.4-5.5-7.3-12.8-31.1-40.2-38.4-47.5s-14.6-9.1-27.4-3.7-51.2 18.3-98.7 60.3c-36.6 32.9-62.2 73.1-67.7 84.1-7.3 12.8 0 18.3 5.5 25.6 5.5 5.5 12.8 14.6 18.3 21.9s7.3 12.8 12.8 20.1c3.7 7.3 0 14.6 0 21.9-3.7 5.5-27.4 65.8-38.4 91.4-11 23.8-20.1 20.1-27.4 20.1h-23.8c-9.1 0-21.9-3.7-32.9-14.6-11-12.8-43.9-42.1-43.9-102.4s43.9-118.9 51.2-126.2c5.5-7.3 85.9-135.3 210.3-184.7 126.2-49.4 126.2-32.9 148.1-31.1s73.1 29.3 82.3 58.5c9.1 25.6 9.1 51.2 7.3 54.9l-1.8 1.8z" />
<glyph unicode="&#xe937;" glyph-name="sitemap" d="M1024 234.667v-256h-256v256h64v149.333c0 11.947-9.387 21.333-21.333 21.333h-234.667v-170.667h64v-256h-256v256h64v170.667h-234.667c-11.947 0-21.333-9.387-21.333-21.333v-149.333h64v-256h-256v256h64v149.333c0 82.347 66.987 149.333 149.333 149.333h234.667v128h-64v256h256v-256h-64v-128h234.667c82.347 0 149.333-66.987 149.333-149.333v-149.333h64z" />
<glyph unicode="&#xe938;" glyph-name="extension" d="M874.667 490.667h-64v170.667c0 47.147-38.187 85.333-85.333 85.333h-170.667v64c0 58.88-47.787 106.667-106.667 106.667s-106.667-47.787-106.667-106.667v-64h-170.667c-47.147 0-84.907-38.187-84.907-85.333l-0.213-162.133h63.787c63.573 0 115.2-51.627 115.2-115.2s-51.627-115.2-115.2-115.2h-63.787l-0.213-162.133c0-47.147 38.187-85.333 85.333-85.333h162.133v64c0 63.573 51.627 115.2 115.2 115.2s115.2-51.627 115.2-115.2v-64h162.133c47.147 0 85.333 38.187 85.333 85.333v170.667h64c58.88 0 106.667 47.787 106.667 106.667s-47.787 106.667-106.667 106.667z" />
<glyph unicode="&#xea50;" glyph-name="ctrl" d="M738.174 471.608c-8.935 0-17.821 3.71-24.168 10.961l-200.505 229.149-200.505-229.149c-11.669-13.339-31.949-14.692-45.286-3.019-13.339 11.671-14.69 31.947-3.019 45.286l224.657 256.751c6.094 6.965 14.899 10.961 24.154 10.961s18.060-3.996 24.154-10.961l224.657-256.751c11.671-13.339 10.322-33.615-3.019-45.286-6.088-5.327-13.621-7.942-21.121-7.942z" />
<glyph unicode="&#xea82;" glyph-name="share2" d="M864 256c-45.16 0-85.92-18.738-115.012-48.83l-431.004 215.502c1.314 8.252 2.016 16.706 2.016 25.328s-0.702 17.076-2.016 25.326l431.004 215.502c29.092-30.090 69.852-48.828 115.012-48.828 88.366 0 160 71.634 160 160s-71.634 160-160 160-160-71.634-160-160c0-8.622 0.704-17.076 2.016-25.326l-431.004-215.504c-29.092 30.090-69.852 48.83-115.012 48.83-88.366 0-160-71.636-160-160 0-88.368 71.634-160 160-160 45.16 0 85.92 18.738 115.012 48.828l431.004-215.502c-1.312-8.25-2.016-16.704-2.016-25.326 0-88.368 71.634-160 160-160s160 71.632 160 160c0 88.364-71.634 160-160 160z" />
<glyph unicode="&#xea8c;" glyph-name="google-plus2" d="M928 960h-832c-52.8 0-96-43.2-96-96v-832c0-52.8 43.2-96 96-96h832c52.8 0 96 43.2 96 96v832c0 52.8-43.2 96-96 96zM384 192c-141.6 0-256 114.4-256 256s114.4 256 256 256c69.2 0 127-25.2 171.6-67l-69.6-66.8c-19 18.2-52.2 39.4-102 39.4-87.4 0-158.8-72.4-158.8-161.6s71.4-161.6 158.8-161.6c101.4 0 139.4 72.8 145.2 110.4h-145.2v87.8h241.8c2.2-12.8 4-25.6 4-42.4 0-146.4-98-250.2-245.8-250.2zM896 448h-64v-64h-64v64h-64v64h64v64h64v-64h64v-64z" />
<glyph unicode="&#xea91;" glyph-name="FB" d="M928 960h-832c-52.8 0-96-43.2-96-96v-832c0-52.8 43.2-96 96-96h416v448h-128v128h128v64c0 105.8 86.2 192 192 192h128v-128h-128c-35.2 0-64-28.8-64-64v-64h192l-32-128h-160v-448h288c52.8 0 96 43.2 96 96v832c0 52.8-43.2 96-96 96z" />
<glyph unicode="&#xea92;" glyph-name="IG" d="M512 867.8c136.8 0 153-0.6 206.8-3 50-2.2 77-10.6 95-17.6 23.8-9.2 41-20.4 58.8-38.2 18-18 29-35 38.4-58.8 7-18 15.4-45.2 17.6-95 2.4-54 3-70.2 3-206.8s-0.6-153-3-206.8c-2.2-50-10.6-77-17.6-95-9.2-23.8-20.4-41-38.2-58.8-18-18-35-29-58.8-38.4-18-7-45.2-15.4-95-17.6-54-2.4-70.2-3-206.8-3s-153 0.6-206.8 3c-50 2.2-77 10.6-95 17.6-23.8 9.2-41 20.4-58.8 38.2-18 18-29 35-38.4 58.8-7 18-15.4 45.2-17.6 95-2.4 54-3 70.2-3 206.8s0.6 153 3 206.8c2.2 50 10.6 77 17.6 95 9.2 23.8 20.4 41 38.2 58.8 18 18 35 29 58.8 38.4 18 7 45.2 15.4 95 17.6 53.8 2.4 70 3 206.8 3zM512 960c-139 0-156.4-0.6-211-3-54.4-2.4-91.8-11.2-124.2-23.8-33.8-13.2-62.4-30.6-90.8-59.2-28.6-28.4-46-57-59.2-90.6-12.6-32.6-21.4-69.8-23.8-124.2-2.4-54.8-3-72.2-3-211.2s0.6-156.4 3-211c2.4-54.4 11.2-91.8 23.8-124.2 13.2-33.8 30.6-62.4 59.2-90.8 28.4-28.4 57-46 90.6-59 32.6-12.6 69.8-21.4 124.2-23.8 54.6-2.4 72-3 211-3s156.4 0.6 211 3c54.4 2.4 91.8 11.2 124.2 23.8 33.6 13 62.2 30.6 90.6 59s46 57 59 90.6c12.6 32.6 21.4 69.8 23.8 124.2 2.4 54.6 3 72 3 211s-0.6 156.4-3 211c-2.4 54.4-11.2 91.8-23.8 124.2-12.6 34-30 62.6-58.6 91-28.4 28.4-57 46-90.6 59-32.6 12.6-69.8 21.4-124.2 23.8-54.8 2.6-72.2 3.2-211.2 3.2v0zM512 711c-145.2 0-263-117.8-263-263s117.8-263 263-263 263 117.8 263 263c0 145.2-117.8 263-263 263zM512 277.4c-94.2 0-170.6 76.4-170.6 170.6s76.4 170.6 170.6 170.6c94.2 0 170.6-76.4 170.6-170.6s-76.4-170.6-170.6-170.6zM846.8 721.4c0-33.91-27.49-61.4-61.4-61.4s-61.4 27.49-61.4 61.4c0 33.91 27.49 61.4 61.4 61.4s61.4-27.49 61.4-61.4z" />
<glyph unicode="&#xea96;" glyph-name="twitter" d="M1024 733.6c-37.6-16.8-78.2-28-120.6-33 43.4 26 76.6 67.2 92.4 116.2-40.6-24-85.6-41.6-133.4-51-38.4 40.8-93 66.2-153.4 66.2-116 0-210-94-210-210 0-16.4 1.8-32.4 5.4-47.8-174.6 8.8-329.4 92.4-433 219.6-18-31-28.4-67.2-28.4-105.6 0-72.8 37-137.2 93.4-174.8-34.4 1-66.8 10.6-95.2 26.2 0-0.8 0-1.8 0-2.6 0-101.8 72.4-186.8 168.6-206-17.6-4.8-36.2-7.4-55.4-7.4-13.6 0-26.6 1.4-39.6 3.8 26.8-83.4 104.4-144.2 196.2-146-72-56.4-162.4-90-261-90-17 0-33.6 1-50.2 3 93.2-59.8 203.6-94.4 322.2-94.4 386.4 0 597.8 320.2 597.8 597.8 0 9.2-0.2 18.2-0.6 27.2 41 29.4 76.6 66.4 104.8 108.6z" />
<glyph unicode="&#xeac5;" glyph-name="skype" d="M425.6 922.6c-1.6 1-3.4 1.8-5 2.6-1.8-0.4-3.4-0.6-5.2-1l10.2-1.6zM36.8 539c-0.4-1.8-0.6-3.6-0.8-5.2 1-1.6 1.6-3.2 2.6-4.8l-1.8 10zM986.8 357.4c0.4 1.8 0.6 3.6 1 5.4-1 1.6-1.6 3.2-2.6 4.8l1.6-10.2zM592-23c1.6-1 3.4-1.8 5-2.6 1.8 0.4 3.6 0.6 5.4 0.8l-10.4 1.8zM987.8 362.8c-0.4-1.8-0.6-3.6-1-5.4l-1.8 10.4c1-1.8 1.8-3.4 2.8-5 5.2 28.8 8 58.2 8 87.6 0 65.2-12.8 128.6-38 188.2-24.4 57.6-59.2 109.4-103.6 153.8s-96.2 79.2-153.6 103.6c-59.6 25.2-123 38-188.2 38-30.8 0-61.6-2.8-91.6-8.6 0 0-0.2 0-0.2 0 1.6-0.8 3.4-1.6 5-2.6l-10.2 1.6c1.8 0.4 3.4 0.6 5.2 1-41.2 21.8-87.4 33.6-134.2 33.6-76.4 0-148.4-29.8-202.4-83.8s-83.8-126-83.8-202.4c0-48.6 12.6-96.6 36-138.8 0.4 1.8 0.6 3.6 0.8 5.2l1.8-10.2c-1 1.6-1.8 3.2-2.6 4.8-4.8-27.4-7.2-55.4-7.2-83.4 0-65.2 12.8-128.6 38-188.2 24.4-57.6 59.2-109.2 103.6-153.6s96.2-79.2 153.8-103.6c59.6-25.2 123-38 188.2-38 28.4 0 56.8 2.6 84.6 7.6-1.6 1-3.2 1.8-5 2.6l10.4-1.8c-1.8-0.4-3.6-0.6-5.4-0.8 42.8-24.2 91.4-37.2 140.8-37.2 76.4 0 148.4 29.8 202.4 83.8s83.8 126 83.8 202.4c-0.2 48.6-12.8 96.6-36.4 139.2zM514.2 154.2c-171.8 0-248.6 84.4-248.6 147.8 0 32.4 24 55.2 57 55.2 73.6 0 54.4-105.6 191.6-105.6 70.2 0 109 38.2 109 77.2 0 23.4-11.6 49.4-57.8 60.8l-152.8 38.2c-123 30.8-145.4 97.4-145.4 160 0 129.8 122.2 178.6 237 178.6 105.8 0 230.4-58.4 230.4-136.4 0-33.4-29-52.8-62-52.8-62.8 0-51.2 86.8-177.6 86.8-62.8 0-97.4-28.4-97.4-69s49.6-53.6 92.6-63.4l113.2-25.2c123.8-27.6 155.2-100 155.2-168 0-105.4-81-184.2-244.4-184.2z" />
<glyph unicode="&#xeac9;" glyph-name="linkedin" d="M928 960h-832c-52.8 0-96-43.2-96-96v-832c0-52.8 43.2-96 96-96h832c52.8 0 96 43.2 96 96v832c0 52.8-43.2 96-96 96zM384 128h-128v448h128v-448zM320 640c-35.4 0-64 28.6-64 64s28.6 64 64 64c35.4 0 64-28.6 64-64s-28.6-64-64-64zM832 128h-128v256c0 35.4-28.6 64-64 64s-64-28.6-64-64v-256h-128v448h128v-79.4c26.4 36.2 66.8 79.4 112 79.4 79.6 0 144-71.6 144-160v-288z" />
<glyph unicode="&#xf055;" glyph-name="plus-circle" horiz-adv-x="884" d="M698.943 320.738v73.574c0 20.12-16.667 36.787-36.787 36.787h-147.146v147.146c0 20.12-16.667 36.787-36.787 36.787h-73.574c-20.12 0-36.787-16.667-36.787-36.787v-147.146h-147.146c-20.12 0-36.787-16.667-36.787-36.787v-73.574c0-20.12 16.667-36.787 36.787-36.787h147.146v-147.146c0-20.12 16.667-36.787 36.787-36.787h73.574c20.12 0 36.787 16.667 36.787 36.787v147.146h147.146c20.12 0 36.787 16.667 36.787 36.787zM882.874 357.524c0-243.711-197.727-441.437-441.437-441.437s-441.437 197.727-441.437 441.437 197.727 441.437 441.437 441.437 441.437-197.727 441.437-441.437z" />
<glyph unicode="&#xf056;" glyph-name="minus-circle" horiz-adv-x="884" d="M698.943 320.738v73.574c0 20.12-16.667 36.787-36.787 36.787h-441.437c-20.12 0-36.787-16.667-36.787-36.787v-73.574c0-20.12 16.667-36.787 36.787-36.787h441.437c20.12 0 36.787 16.667 36.787 36.787zM882.874 357.524c0-243.711-197.727-441.437-441.437-441.437s-441.437 197.727-441.437 441.437 197.727 441.437 441.437 441.437 441.437-197.727 441.437-441.437z" />
<glyph unicode="&#xf057;" glyph-name="times-circle" horiz-adv-x="884" d="M660.431 227.622c0 9.773-4.024 18.967-10.923 25.864l-104.036 104.036 104.036 104.036c6.899 6.899 10.923 16.096 10.923 25.864s-4.024 19.543-10.923 26.442l-51.73 51.73c-6.899 6.899-16.667 10.923-26.442 10.923s-18.967-4.024-25.864-10.923l-104.036-104.036-104.036 104.036c-6.899 6.899-16.096 10.923-25.864 10.923s-19.543-4.024-26.442-10.923l-51.73-51.73c-6.899-6.899-10.923-16.667-10.923-26.442s4.024-18.967 10.923-25.864l104.036-104.036-104.036-104.036c-6.899-6.899-10.923-16.096-10.923-25.864s4.024-19.543 10.923-26.442l51.73-51.73c6.899-6.899 16.667-10.923 26.442-10.923s18.967 4.024 25.864 10.923l104.036 104.036 104.036-104.036c6.899-6.899 16.096-10.923 25.864-10.923s19.543 4.024 26.442 10.923l51.73 51.73c6.899 6.899 10.923 16.667 10.923 26.442zM882.874 357.524c0-243.711-197.727-441.437-441.437-441.437s-441.437 197.727-441.437 441.437 197.727 441.437 441.437 441.437 441.437-197.727 441.437-441.437z" />
<glyph unicode="&#xf058;" glyph-name="check-circle" horiz-adv-x="884" d="M738.028 450.639c0 9.773-3.447 19.543-10.346 26.442l-52.306 51.73c-6.899 6.899-16.096 10.923-25.864 10.923s-18.967-4.024-25.864-10.923l-234.514-233.938-129.902 129.902c-6.899 6.899-16.096 10.923-25.864 10.923s-18.967-4.024-25.864-10.923l-52.306-51.73c-6.899-6.899-10.346-16.667-10.346-26.442s3.447-18.967 10.346-25.864l208.073-208.073c6.899-6.899 16.667-10.923 25.864-10.923 9.773 0 19.543 4.024 26.442 10.923l312.11 312.11c6.899 6.899 10.346 16.096 10.346 25.864zM882.874 357.524c0-243.711-197.727-441.437-441.437-441.437s-441.437 197.727-441.437 441.437 197.727 441.437 441.437 441.437 441.437-197.727 441.437-441.437z" />
<glyph unicode="&#xf059;" glyph-name="question-circle" horiz-adv-x="884" d="M515.009 81.625v110.359c0 10.346-8.048 18.394-18.394 18.394h-110.359c-10.346 0-18.394-8.048-18.394-18.394v-110.359c0-10.346 8.048-18.394 18.394-18.394h110.359c10.346 0 18.394 8.048 18.394 18.394zM662.156 467.883c0 105.186-110.359 183.932-209.223 183.932-93.689 0-163.815-40.234-213.246-122.429-5.173-8.048-2.875-18.394 4.595-24.142l75.873-57.479c2.875-2.298 6.899-3.447 10.923-3.447 5.173 0 10.923 2.298 14.37 6.899 27.013 34.49 38.511 44.835 49.431 52.88 9.773 6.899 28.739 13.792 49.431 13.792 36.787 0 70.7-23.567 70.7-48.858 0-29.888-15.519-44.835-50.58-60.925-40.811-18.394-96.564-66.099-96.564-121.856v-20.691c0-10.346 8.048-18.394 18.394-18.394h110.359c10.346 0 18.394 8.048 18.394 18.394v0c0 13.221 16.667 41.383 43.685 56.903 43.685 24.715 103.463 58.054 103.463 145.421zM882.874 357.524c0-243.711-197.727-441.437-441.437-441.437s-441.437 197.727-441.437 441.437 197.727 441.437 441.437 441.437 441.437-197.727 441.437-441.437z" />
<glyph unicode="&#xf05a;" glyph-name="info-circle" horiz-adv-x="884" d="M588.584 81.625v91.967c0 10.346-8.048 18.394-18.394 18.394h-55.181v294.291c0 10.346-8.048 18.394-18.394 18.394h-183.932c-10.346 0-18.394-8.048-18.394-18.394v-91.967c0-10.346 8.048-18.394 18.394-18.394h55.181v-183.932h-55.181c-10.346 0-18.394-8.048-18.394-18.394v-91.967c0-10.346 8.048-18.394 18.394-18.394h257.504c10.346 0 18.394 8.048 18.394 18.394zM515.009 596.634v91.967c0 10.346-8.048 18.394-18.394 18.394h-110.359c-10.346 0-18.394-8.048-18.394-18.394v-91.967c0-10.346 8.048-18.394 18.394-18.394h110.359c10.346 0 18.394 8.048 18.394 18.394zM882.874 357.524c0-243.711-197.727-441.437-441.437-441.437s-441.437 197.727-441.437 441.437 197.727 441.437 441.437 441.437 441.437-197.727 441.437-441.437z" />
<glyph unicode="&#xf05c;" glyph-name="x-circle" horiz-adv-x="884" d="M630.543 252.338l-83.921-83.921c-7.471-7.471-18.967-7.471-26.442 0l-78.748 78.748-78.748-78.748c-7.471-7.471-18.967-7.471-26.442 0l-83.921 83.921c-7.471 7.471-7.471 18.967 0 26.442l78.748 78.748-78.748 78.748c-7.471 7.471-7.471 18.967 0 26.442l83.921 83.921c7.471 7.471 18.967 7.471 26.442 0l78.748-78.748 78.748 78.748c7.471 7.471 18.967 7.471 26.442 0l83.921-83.921c7.471-7.471 7.471-18.967 0-26.442l-78.748-78.748 78.748-78.748c7.471-7.471 7.471-18.967 0-26.442zM754.122 357.524c0 172.437-140.249 312.684-312.684 312.684s-312.684-140.249-312.684-312.684 140.249-312.684 312.684-312.684 312.684 140.249 312.684 312.684zM882.874 357.524c0-243.711-197.727-441.437-441.437-441.437s-441.437 197.727-441.437 441.437 197.727 441.437 441.437 441.437 441.437-197.727 441.437-441.437z" />
<glyph unicode="&#xf05d;" glyph-name="check-circle-o" horiz-adv-x="884" d="M673.077 405.231l-242.561-242.561c-14.37-14.37-37.359-14.37-51.73 0l-168.988 168.988c-14.37 14.37-14.37 37.359 0 51.73l58.628 58.628c14.37 14.37 37.359 14.37 51.73 0l84.493-84.493 158.067 158.067c14.37 14.37 37.359 14.37 51.73 0l58.628-58.628c14.37-14.37 14.37-37.359 0-51.73zM754.122 357.524c0 172.437-140.249 312.684-312.684 312.684s-312.684-140.249-312.684-312.684 140.249-312.684 312.684-312.684 312.684 140.249 312.684 312.684zM882.874 357.524c0-243.711-197.727-441.437-441.437-441.437s-441.437 197.727-441.437 441.437 197.727 441.437 441.437 441.437 441.437-197.727 441.437-441.437z" />
<glyph unicode="&#xf06a;" glyph-name="exclamation-circle" horiz-adv-x="884" d="M441.437 798.961c243.711 0 441.437-197.727 441.437-441.437s-197.727-441.437-441.437-441.437-441.437 197.727-441.437 441.437 197.727 441.437 441.437 441.437zM515.009 82.2v109.209c0 10.346-8.048 18.967-17.816 18.967h-110.359c-10.346 0-18.967-8.619-18.967-18.967v-109.209c0-10.346 8.619-18.967 18.967-18.967h110.359c9.773 0 17.816 8.619 17.816 18.967zM513.86 279.927l10.346 356.944c0 4.024-1.726 8.048-5.75 10.346-3.447 2.875-8.619 4.595-13.792 4.595h-126.452c-5.173 0-10.346-1.726-13.792-4.595-4.024-2.298-5.75-6.322-5.75-10.346l9.773-356.944c0-8.048 8.619-14.37 19.543-14.37h106.336c10.346 0 18.967 6.322 19.543 14.37z" />
<glyph unicode="&#xf104;" glyph-name="angle-left" horiz-adv-x="384" d="M359.338 599.983c0-4.583-2.292-9.743-5.732-13.182l-225.231-225.231 225.231-225.231c3.438-3.438 5.732-8.595 5.732-13.182s-2.292-9.743-5.732-13.182l-28.655-28.655c-3.438-3.438-8.595-5.732-13.182-5.732s-9.743 2.292-13.182 5.732l-267.068 267.068c-3.438 3.438-5.732 8.595-5.732 13.182s2.292 9.743 5.732 13.182l267.068 267.068c3.438 3.438 8.595 5.732 13.182 5.732s9.743-2.292 13.182-5.732l28.655-28.655c3.438-3.438 5.732-8.024 5.732-13.182z" />
<glyph unicode="&#xf105;" glyph-name="angle-right" horiz-adv-x="347" d="M340.998 361.573c0-4.583-2.292-9.743-5.732-13.182l-267.068-267.068c-3.438-3.438-8.595-5.732-13.182-5.732s-9.743 2.292-13.182 5.732l-28.655 28.655c-3.438 3.438-5.732 8.024-5.732 13.182 0 4.583 2.292 9.743 5.732 13.182l225.231 225.231-225.231 225.231c-3.438 3.438-5.732 8.595-5.732 13.182s2.292 9.743 5.732 13.182l28.655 28.655c3.438 3.438 8.595 5.732 13.182 5.732s9.743-2.292 13.182-5.732l267.068-267.068c3.438-3.438 5.732-8.595 5.732-13.182z" />
</font>
</defs>
</svg>
